<svg width="72" height="72" viewBox="0 0 72 72" fill="none" xmlns="http://www.w3.org/2000/svg">
<g clip-path="url(#clip0_3837_4302)">
<mask id="mask0_3837_4302" style="mask-type:luminance" maskUnits="userSpaceOnUse" x="0" y="0" width="72" height="72">
<path d="M72 0H0V72H72V0Z" fill="white"/>
</mask>
<g mask="url(#mask0_3837_4302)">
<mask id="mask1_3837_4302" style="mask-type:luminance" maskUnits="userSpaceOnUse" x="-1" y="-1" width="74" height="74">
<path d="M-0.25 -0.25H72.25V72.25H-0.25V-0.25Z" fill="white"/>
</mask>
<g mask="url(#mask1_3837_4302)">
<path d="M36.6501 21.2582L2.50113 31.3627C1.39077 31.6911 0.617235 32.6114 0.422567 33.6777L0.40577 34.6347C0.42613 34.7734 0.456463 34.9123 0.497349 35.0505L10.6015 69.1995C10.9103 70.2429 11.7418 70.9889 12.7257 71.2366L14.0662 71.2601C14.1407 71.2442 14.2151 71.2252 14.2895 71.2032L48.4385 61.0988C50.0103 60.6338 50.9072 58.9827 50.4422 57.4109L40.3378 23.262C39.961 21.9887 38.8059 21.1581 37.5451 21.136C37.2497 21.1308 36.9484 21.17 36.6501 21.2582Z" fill="url(#paint0_linear_3837_4302)"/>
<path d="M8.68118 29.5339L2.50068 31.3627C2.15539 31.4647 1.84272 31.6242 1.56988 31.8275C0.958452 32.6271 0.545517 33.5878 0.40572 34.6368C0.425956 34.7745 0.456297 34.9128 0.496908 35.0505L10.6014 69.1995C10.8813 70.1456 11.5911 70.8474 12.4547 71.1546L14.3416 71.1877L48.4382 61.0988C50.01 60.6338 50.9071 58.9827 50.442 57.4109L42.3686 30.1252L8.68118 29.5339Z" fill="url(#paint1_linear_3837_4302)"/>
<path d="M8.68133 29.534L2.50068 31.3627C2.15539 31.4647 1.84272 31.6242 1.56988 31.8275C0.958452 32.6271 0.545517 33.5878 0.40572 34.6368C0.425956 34.7745 0.456297 34.9128 0.496908 35.0505L6.64016 55.7597L47.8654 51.9496L42.3686 30.1252L8.68133 29.534Z" fill="url(#paint2_linear_3837_4302)"/>
<path d="M30.1858 3.03759L21.3008 38.3668C20.892 39.9929 21.8787 41.6424 23.5047 42.0515L58.8336 50.9362C60.4596 51.3451 62.1092 50.3585 62.5181 48.7324L71.4032 13.4035C71.8121 11.7774 70.8253 10.1278 69.1992 9.71883L33.8703 0.833953C33.606 0.767458 33.3413 0.737904 33.0813 0.741913C31.7411 0.762722 30.5282 1.67605 30.1858 3.03759Z" fill="url(#paint3_radial_3837_4302)"/>
<path d="M11.5433 14.8037C8.1873 14.8208 5.48044 17.5555 5.49757 20.9115L5.65266 51.2961C5.66979 54.6523 8.40442 57.359 11.7605 57.3419L60.3757 57.0937C63.7318 57.0766 66.4387 54.3421 66.4215 50.9859L66.2664 20.6013C66.2493 17.2453 63.5147 14.5384 60.1586 14.5556L11.5433 14.8037Z" fill="url(#paint4_linear_3837_4302)"/>
<path d="M39.6552 41.1599C39.7738 40.6024 40.3218 40.2464 40.8794 40.3648L46.5878 41.5789C47.1455 41.6974 47.5016 42.2455 47.383 42.8032C47.2645 43.3608 46.7163 43.7168 46.1587 43.5983L40.4504 42.3843C39.8928 42.2658 39.5367 41.7176 39.6552 41.1599Z" fill="#EDFFF8"/>
<path d="M39.5564 35.9913C39.5564 35.4212 40.0186 34.959 40.5887 34.959L47.9394 34.9625C48.5095 34.9625 48.9716 35.4247 48.9716 35.9948C48.9716 36.5649 48.5095 37.0271 47.9394 37.0271L40.5887 37.0236C40.0186 37.0236 39.5564 36.5614 39.5564 35.9913Z" fill="#EDFFF8"/>
<path d="M39.6748 30.8375C39.5563 30.2799 39.9123 29.7317 40.4699 29.6132L47.6676 28.0865C48.2253 27.9679 48.7734 28.3239 48.8919 28.8816C49.0105 29.4392 48.6545 29.9874 48.0968 30.1059L40.8992 31.6326C40.3415 31.7512 39.7934 31.3952 39.6748 30.8375Z" fill="#EDFFF8"/>
<path d="M37.5335 35.4018C37.3948 28.6064 31.7734 23.2098 24.9779 23.3485C18.1825 23.4873 12.7861 29.1089 12.9248 35.9043C12.9661 37.9256 13.4948 39.8679 14.4505 41.5973L13.1846 46.9019C13.1432 47.0758 13.1469 47.2572 13.1954 47.429C13.3524 47.985 13.9304 48.3085 14.4863 48.1514L19.7375 46.6693C21.5025 47.5511 23.4621 47.9986 25.4804 47.9574C32.2758 47.8186 37.6723 42.1972 37.5335 35.4018Z" fill="#EDFFF8"/>
</g>
</g>
</g>
<defs>
<linearGradient id="paint0_linear_3837_4302" x1="44.2175" y1="59.2987" x2="4.89764" y2="32.963" gradientUnits="userSpaceOnUse">
<stop stop-color="#0580A1"/>
<stop offset="0.5" stop-color="#086490"/>
<stop offset="1" stop-color="#0B487F"/>
</linearGradient>
<linearGradient id="paint1_linear_3837_4302" x1="22.4734" y1="48.2859" x2="22.7606" y2="63.86" gradientUnits="userSpaceOnUse">
<stop stop-color="#47229F" stop-opacity="0"/>
<stop offset="0.25" stop-color="#28125D" stop-opacity="0.4"/>
<stop offset="0.5" stop-color="#09011B" stop-opacity="0.8"/>
<stop offset="0.75" stop-color="#28125D" stop-opacity="0.4"/>
<stop offset="1" stop-color="#47229F" stop-opacity="0"/>
</linearGradient>
<linearGradient id="paint2_linear_3837_4302" x1="2.11977" y1="36.1084" x2="13.1841" y2="35.8268" gradientUnits="userSpaceOnUse">
<stop stop-color="#47229F" stop-opacity="0"/>
<stop offset="0.25" stop-color="#28125D" stop-opacity="0.405"/>
<stop offset="0.5" stop-color="#09011B" stop-opacity="0.81"/>
<stop offset="0.75" stop-color="#28125D" stop-opacity="0.405"/>
<stop offset="1" stop-color="#47229F" stop-opacity="0"/>
</linearGradient>
<radialGradient id="paint3_radial_3837_4302" cx="0" cy="0" r="1" gradientUnits="userSpaceOnUse" gradientTransform="translate(63.1417 24.5521) rotate(-0.883457) scale(40.6509)">
<stop stop-color="#D5C41C"/>
<stop offset="0.5" stop-color="#94BC46"/>
<stop offset="1" stop-color="#53B571"/>
</radialGradient>
<linearGradient id="paint4_linear_3837_4302" x1="26.4901" y1="18.6267" x2="48.6787" y2="61.9738" gradientUnits="userSpaceOnUse">
<stop stop-color="#0075D7"/>
<stop offset="0.5" stop-color="#1AA7DE"/>
<stop offset="1" stop-color="#33D9E4"/>
</linearGradient>
<clipPath id="clip0_3837_4302">
<rect width="72" height="72" fill="white"/>
</clipPath>
</defs>
</svg>
