<svg width="72" height="72" viewBox="0 0 72 72" fill="none" xmlns="http://www.w3.org/2000/svg">
<g clip-path="url(#clip0_3837_2902)">
<mask id="mask0_3837_2902" style="mask-type:luminance" maskUnits="userSpaceOnUse" x="0" y="0" width="72" height="72">
<path d="M72 0H0V72H72V0Z" fill="white"/>
</mask>
<g mask="url(#mask0_3837_2902)">
<mask id="mask1_3837_2902" style="mask-type:luminance" maskUnits="userSpaceOnUse" x="-1" y="-1" width="74" height="74">
<path d="M-0.25 -0.25H72.25V72.25H-0.25V-0.25Z" fill="white"/>
</mask>
<g mask="url(#mask1_3837_2902)">
<path d="M37.1408 21.886L4.03844 30.3769C2.96212 30.6529 2.18801 31.5083 1.9639 32.524L1.91419 33.4411C1.92885 33.5748 1.95306 33.709 1.98742 33.843L10.4781 66.9455C10.7376 67.9569 11.5088 68.7015 12.4435 68.9735L13.7282 69.0432C13.8002 69.0305 13.8723 69.015 13.9443 68.9964L47.0468 60.5056C48.5705 60.1148 49.4886 58.563 49.0977 57.0394L40.6069 23.937C40.2902 22.7027 39.2117 21.8657 38.0034 21.8002C37.7203 21.7849 37.43 21.8118 37.1408 21.886Z" fill="url(#paint0_linear_3837_2902)"/>
<path d="M10.0291 28.8402L4.03797 30.3769C3.70327 30.4627 3.39782 30.6046 3.12904 30.7899C2.51463 31.5353 2.08491 32.4421 1.91403 33.4431C1.9286 33.5759 1.95284 33.7096 1.98695 33.843L10.4779 66.9455C10.7131 67.8626 11.3692 68.5605 12.1865 68.8854L13.9948 68.9834L47.0465 60.5056C48.5702 60.1148 49.4884 58.563 49.0976 57.0394L42.3133 30.5899L10.0291 28.8402Z" fill="url(#paint1_linear_3837_2902)"/>
<path d="M10.0292 28.8402L4.03797 30.3769C3.70327 30.4627 3.39782 30.6046 3.12904 30.7899C2.51463 31.5353 2.08491 32.4421 1.91403 33.4431C1.9286 33.5759 1.95284 33.7096 1.98695 33.843L7.15106 53.9181L46.8184 51.7117L42.3133 30.5899L10.0292 28.8402Z" fill="url(#paint2_linear_3837_2902)"/>
<path d="M29.613 5.2177L22.0556 39.8371C21.7079 41.4305 22.7177 43.004 24.311 43.352L58.9301 50.9092C60.5234 51.257 62.097 50.2473 62.4448 48.6539L70.0023 14.0348C70.3501 12.4413 69.3403 10.8677 67.7469 10.5199L33.1277 2.96258C32.8688 2.90602 32.6105 2.88538 32.3579 2.89723C31.0555 2.95846 29.9043 3.88352 29.613 5.2177Z" fill="url(#paint3_radial_3837_2902)"/>
<path d="M11.0043 14.8016C7.60602 14.8554 4.89467 17.6539 4.94845 21.0521L5.43532 51.8186C5.4891 55.217 8.28764 57.9282 11.6859 57.8744L60.9122 57.0954C64.3104 57.0417 67.0218 54.2433 66.968 50.8449L66.4811 20.0784C66.4274 16.6802 63.6288 13.9688 60.2306 14.0226L11.0043 14.8016Z" fill="url(#paint4_linear_3837_2902)"/>
<path d="M41.9473 46.1989C41.9473 45.2456 42.72 44.4728 43.6732 44.4726L55.325 44.472C56.2783 44.4719 57.0513 45.2446 57.0513 46.198C57.0513 47.1514 56.2785 47.9242 55.3251 47.9242L43.6736 47.9251C42.7203 47.9251 41.9473 47.1522 41.9473 46.1989Z" fill="#EDFFF8"/>
<path d="M51.7192 35.9807C51.7192 35.0273 52.4921 34.2544 53.4455 34.2544L58.3458 34.2593C59.2992 34.2593 60.072 35.0321 60.072 35.9855C60.072 36.9389 59.2992 37.7117 58.3458 37.7117L53.4455 37.7069C52.4921 37.7069 51.7192 36.934 51.7192 35.9807Z" fill="#EDFFF8"/>
<path d="M55.6094 25.4788C55.6094 24.5254 56.3822 23.7526 57.3356 23.7526L58.3461 23.7568C59.2995 23.7568 60.0723 24.5296 60.0723 25.483C60.0723 26.4364 59.2995 27.2092 58.3461 27.2092L57.3356 27.205C56.3822 27.205 55.6094 26.4322 55.6094 25.4788Z" fill="#EDFFF8"/>
<path d="M37.9651 33.7199C37.4958 26.6414 31.3769 21.2832 24.2984 21.7525C17.2199 22.2218 11.8619 28.3408 12.3312 35.4194C12.4708 37.5249 13.1147 39.5248 14.1938 41.2823L13.1274 46.8735C13.0925 47.0567 13.105 47.2457 13.1638 47.4225C13.354 47.9947 13.9721 48.3044 14.5443 48.1141L19.9485 46.3179C21.8309 47.153 23.8954 47.526 25.9979 47.3866C33.0764 46.9173 38.4344 40.7985 37.9651 33.7199Z" fill="#EDFFF8"/>
</g>
</g>
</g>
<defs>
<linearGradient id="paint0_linear_3837_2902" x1="43.0622" y1="58.6312" x2="6.28043" y2="31.9957" gradientUnits="userSpaceOnUse">
<stop stop-color="#0580A1"/>
<stop offset="0.5" stop-color="#086490"/>
<stop offset="1" stop-color="#0B487F"/>
</linearGradient>
<linearGradient id="paint1_linear_3837_2902" x1="22.597" y1="47.3069" x2="22.4689" y2="65.8108" gradientUnits="userSpaceOnUse">
<stop stop-color="#47229F" stop-opacity="0"/>
<stop offset="0.25" stop-color="#28125D" stop-opacity="0.4"/>
<stop offset="0.5" stop-color="#09011B" stop-opacity="0.8"/>
<stop offset="0.75" stop-color="#28125D" stop-opacity="0.4"/>
<stop offset="1" stop-color="#47229F" stop-opacity="0"/>
</linearGradient>
<linearGradient id="paint2_linear_3837_2902" x1="3.50607" y1="34.9146" x2="14.1263" y2="35.0329" gradientUnits="userSpaceOnUse">
<stop stop-color="#47229F" stop-opacity="0"/>
<stop offset="0.25" stop-color="#28125D" stop-opacity="0.405"/>
<stop offset="0.5" stop-color="#09011B" stop-opacity="0.81"/>
<stop offset="0.75" stop-color="#28125D" stop-opacity="0.405"/>
<stop offset="1" stop-color="#47229F" stop-opacity="0"/>
</linearGradient>
<radialGradient id="paint3_radial_3837_2902" cx="0" cy="0" r="1" gradientUnits="userSpaceOnUse" gradientTransform="translate(62.3114 25.1264) rotate(-2.68562) scale(39.541)">
<stop stop-color="#D5C41C"/>
<stop offset="0.5" stop-color="#94BC46"/>
<stop offset="1" stop-color="#53B571"/>
</radialGradient>
<linearGradient id="paint4_linear_3837_2902" x1="26.1812" y1="18.5106" x2="49.1205" y2="62.164" gradientUnits="userSpaceOnUse">
<stop stop-color="#0075D7"/>
<stop offset="0.5" stop-color="#1AA7DE"/>
<stop offset="1" stop-color="#33D9E4"/>
</linearGradient>
<clipPath id="clip0_3837_2902">
<rect width="72" height="72" fill="white"/>
</clipPath>
</defs>
</svg>
