<svg width="72" height="72" viewBox="0 0 72 72" fill="none" xmlns="http://www.w3.org/2000/svg">
<g clip-path="url(#clip0_3837_4052)">
<mask id="mask0_3837_4052" style="mask-type:luminance" maskUnits="userSpaceOnUse" x="0" y="0" width="72" height="72">
<path d="M72 0H0V72H72V0Z" fill="white"/>
</mask>
<g mask="url(#mask0_3837_4052)">
<mask id="mask1_3837_4052" style="mask-type:luminance" maskUnits="userSpaceOnUse" x="-1" y="-1" width="74" height="74">
<path d="M-0.25 -0.25H72.25V72.25H-0.25V-0.25Z" fill="white"/>
</mask>
<g mask="url(#mask1_3837_4052)">
<path d="M37.4696 22.2677L4.97975 29.7083C3.92335 29.9502 3.14694 30.7646 2.90271 31.7492L2.83103 32.6421C2.84194 32.7729 2.86215 32.9044 2.89225 33.0359L10.3326 65.5258C10.56 66.5185 11.293 67.264 12.1976 67.5529L13.4484 67.6533C13.5189 67.6428 13.5895 67.6295 13.6603 67.6132L46.1502 60.1727C47.6457 59.8303 48.5801 58.3405 48.2376 56.845L40.7971 24.3552C40.5196 23.1437 39.4892 22.3004 38.3128 22.2059C38.0371 22.1838 37.7534 22.2028 37.4696 22.2677Z" fill="url(#paint0_linear_3837_4052)"/>
<path d="M10.8594 28.3617L4.97913 29.7083C4.65062 29.7834 4.34922 29.9141 4.08247 30.088C3.46455 30.7992 3.02261 31.6724 2.83065 32.6441C2.8415 32.7739 2.86175 32.9049 2.89163 33.0358L10.3322 65.5258C10.5383 66.4259 11.1604 67.1229 11.949 67.4604L13.7096 67.6018L46.1497 60.1727C47.6452 59.8302 48.5797 58.3404 48.2373 56.845L42.2923 30.885L10.8594 28.3617Z" fill="url(#paint1_linear_3837_4052)"/>
<path d="M10.8595 28.3617L4.97913 29.7083C4.65062 29.7834 4.34922 29.9141 4.08247 30.088C3.46455 30.7992 3.02261 31.6724 2.83065 32.6441C2.8415 32.7739 2.86175 32.9049 2.89163 33.0358L7.4184 52.7398L46.1499 51.5928L42.2923 30.885L10.8595 28.3617Z" fill="url(#paint2_linear_3837_4052)"/>
<path d="M29.2174 6.78693L22.6081 40.8875C22.3041 42.457 23.3299 43.9758 24.8993 44.2801L58.9996 50.8891C60.569 51.1933 62.0879 50.1676 62.3921 48.598L69.0013 14.4977C69.3055 12.9282 68.2797 11.4093 66.7101 11.1051L32.6099 4.49603C32.3548 4.44656 32.1012 4.43228 31.8539 4.44971C30.579 4.53969 29.4721 5.47274 29.2174 6.78693Z" fill="url(#paint3_radial_3837_4052)"/>
<path d="M10.6514 14.8236C7.2272 14.9032 4.51569 17.7437 4.59528 21.168L5.31586 52.17C5.39545 55.5944 8.236 58.3057 11.6602 58.2261L61.2634 57.0732C64.6876 56.9936 67.3991 54.1532 67.3195 50.7288L66.599 19.7268C66.5194 16.3026 63.6788 13.5911 60.2546 13.6707L10.6514 14.8236Z" fill="url(#paint4_linear_3837_4052)"/>
<path d="M38.1128 38.5133C38.2204 38.2177 38.5472 38.0652 38.8428 38.1728L38.8801 38.1902C39.1758 38.2977 39.3283 38.6246 39.2207 38.9203C39.1131 39.2159 38.7862 39.3683 38.4905 39.2607L38.4533 39.2434C38.1577 39.1358 38.0052 38.8089 38.1128 38.5133Z" fill="#EDFFF8"/>
<path d="M37.9624 35.9953C37.9624 35.6806 38.2174 35.4256 38.5321 35.4256L38.589 35.4373C38.9036 35.4373 39.1587 35.6924 39.1587 36.007C39.1587 36.3216 38.9036 36.5766 38.589 36.5766L38.5321 36.5649C38.2174 36.5649 37.9624 36.3099 37.9624 35.9953Z" fill="#EDFFF8"/>
<path d="M38.1426 33.5523C38.035 33.2566 38.1874 32.9297 38.4831 32.8221L38.5626 32.8043C38.8583 32.6967 39.1852 32.8492 39.2928 33.1448C39.4004 33.4404 39.2479 33.7673 38.9523 33.8749L38.8727 33.8927C38.5771 34.0003 38.2502 33.8479 38.1426 33.5523Z" fill="#EDFFF8"/>
<path d="M38.2174 32.6767C37.5414 25.426 31.1154 20.0958 23.8646 20.7717C16.6139 21.4476 11.2838 27.8738 11.9598 35.1246C12.1608 37.2813 12.8766 39.3158 14.0321 41.0896L13.0913 46.8564C13.0606 47.0454 13.0786 47.2389 13.1438 47.4188C13.3547 48.0007 13.9975 48.3015 14.5794 48.0905L20.0756 46.0989C22.0301 46.9042 24.1589 47.2302 26.3125 47.0295C33.5632 46.3535 38.8933 39.9275 38.2174 32.6767Z" fill="#EDFFF8"/>
</g>
</g>
</g>
<defs>
<linearGradient id="paint0_linear_3837_4052" x1="42.3126" y1="58.2442" x2="7.12471" y2="31.3434" gradientUnits="userSpaceOnUse">
<stop stop-color="#0580A1"/>
<stop offset="0.5" stop-color="#086490"/>
<stop offset="1" stop-color="#0B487F"/>
</linearGradient>
<linearGradient id="paint1_linear_3837_4052" x1="22.6455" y1="46.6849" x2="22.0728" y2="66.1654" gradientUnits="userSpaceOnUse">
<stop stop-color="#47229F" stop-opacity="0"/>
<stop offset="0.25" stop-color="#28125D" stop-opacity="0.4"/>
<stop offset="0.5" stop-color="#09011B" stop-opacity="0.8"/>
<stop offset="0.75" stop-color="#28125D" stop-opacity="0.4"/>
<stop offset="1" stop-color="#47229F" stop-opacity="0"/>
</linearGradient>
<linearGradient id="paint2_linear_3837_4052" x1="4.34565" y1="34.119" x2="14.6974" y2="34.5033" gradientUnits="userSpaceOnUse">
<stop stop-color="#47229F" stop-opacity="0"/>
<stop offset="0.25" stop-color="#28125D" stop-opacity="0.405"/>
<stop offset="0.5" stop-color="#09011B" stop-opacity="0.81"/>
<stop offset="0.75" stop-color="#28125D" stop-opacity="0.405"/>
<stop offset="1" stop-color="#47229F" stop-opacity="0"/>
</linearGradient>
<radialGradient id="paint3_radial_3837_4052" cx="0" cy="0" r="1" gradientUnits="userSpaceOnUse" gradientTransform="translate(61.7197 25.5444) rotate(-4.03128) scale(38.7603)">
<stop stop-color="#D5C41C"/>
<stop offset="0.5" stop-color="#94BC46"/>
<stop offset="1" stop-color="#53B571"/>
</radialGradient>
<linearGradient id="paint4_linear_3837_4052" x1="25.9741" y1="18.448" x2="49.4179" y2="62.2693" gradientUnits="userSpaceOnUse">
<stop stop-color="#0075D7"/>
<stop offset="0.5" stop-color="#1AA7DE"/>
<stop offset="1" stop-color="#33D9E4"/>
</linearGradient>
<clipPath id="clip0_3837_4052">
<rect width="72" height="72" fill="white"/>
</clipPath>
</defs>
</svg>
