<svg width="72" height="72" viewBox="0 0 72 72" fill="none" xmlns="http://www.w3.org/2000/svg">
<g clip-path="url(#clip0_3837_3252)">
<mask id="mask0_3837_3252" style="mask-type:luminance" maskUnits="userSpaceOnUse" x="0" y="0" width="72" height="72">
<path d="M72 0H0V72H72V0Z" fill="white"/>
</mask>
<g mask="url(#mask0_3837_3252)">
<mask id="mask1_3837_3252" style="mask-type:luminance" maskUnits="userSpaceOnUse" x="-1" y="-1" width="74" height="74">
<path d="M-0.25 -0.25H72.25V72.25H-0.25V-0.25Z" fill="white"/>
</mask>
<g mask="url(#mask1_3837_3252)">
<path d="M39.2208 25.649L13.07 26.4361C12.2197 26.4617 11.4979 26.9707 11.1601 27.6917L10.9691 28.3685C10.9576 28.4708 10.9531 28.5751 10.9563 28.681L11.7432 54.8318C11.7673 55.6308 12.2184 56.3164 12.871 56.6765L13.8189 56.9441C13.8748 56.9467 13.9312 56.9472 13.9882 56.9454L40.1391 56.1584C41.3427 56.1222 42.2889 55.1171 42.2527 53.9135L41.4656 27.7627C41.4362 26.7875 40.771 25.9814 39.8795 25.7297C39.6706 25.6707 39.4493 25.6421 39.2208 25.649Z" fill="url(#paint0_linear_3837_3252)"/>
<path d="M17.8025 26.2936L13.0696 26.4361C12.8052 26.444 12.5532 26.4987 12.3214 26.592C11.7373 27.0457 11.2642 27.6509 10.9685 28.37C10.9571 28.4716 10.9528 28.5755 10.9559 28.6809L11.743 54.8318C11.7648 55.5563 12.1378 56.1877 12.6938 56.5675L14.028 56.9442L40.1388 56.1584C41.3424 56.1221 42.2887 55.1171 42.2525 53.9134L41.6237 33.0184L17.8025 26.2936Z" fill="url(#paint1_linear_3837_3252)"/>
<path d="M17.8026 26.2937L13.0696 26.4361C12.8052 26.444 12.5532 26.4987 12.3214 26.592C11.7373 27.0457 11.2642 27.6509 10.9685 28.37C10.9571 28.4716 10.9528 28.5755 10.9559 28.6809L11.4443 44.5426L41.4441 49.5514L41.6237 33.0184L17.8026 26.2937Z" fill="url(#paint2_linear_3837_3252)"/>
<path d="M28.2493 18.2418L27.6896 47.6142C27.6639 48.9661 28.739 50.0828 30.0908 50.1087L59.463 50.6682C60.8148 50.694 61.9316 49.619 61.9574 48.2671L62.5172 18.8948C62.5429 17.5429 61.4678 16.4262 60.1159 16.4004L30.7437 15.8407C30.524 15.8365 30.3106 15.8614 30.107 15.9118C29.0579 16.1718 28.2709 17.1098 28.2493 18.2418Z" fill="url(#paint3_radial_3837_3252)"/>
<path d="M7.76265 15.0512C4.12854 15.3459 1.4213 18.531 1.71602 22.1651L4.38434 55.0671C4.67907 58.7014 7.86416 61.4085 11.4983 61.1138L64.1414 56.8445C67.7755 56.5498 70.4828 53.3648 70.1881 49.7305L67.5197 16.8285C67.225 13.1944 64.0399 10.4872 60.4058 10.7819L7.76265 15.0512Z" fill="url(#paint4_linear_3837_3252)"/>
<path d="M52.3984 46.2098C52.3984 45.2566 53.1711 44.4837 54.1244 44.4836L55.3251 44.4721C56.2785 44.472 57.0515 45.2447 57.0515 46.198C57.0515 47.1514 56.2786 47.9243 55.3253 47.9243L54.1248 47.936C53.1714 47.936 52.3984 47.1632 52.3984 46.2098Z" fill="#EDFFF8"/>
<path d="M56.5925 35.9783C56.5925 35.0249 57.3654 34.2521 58.3188 34.2521L58.3463 34.2593C59.2997 34.2593 60.0725 35.0322 60.0725 35.9856C60.0725 36.9389 59.2997 37.7118 58.3463 37.7118L58.3188 37.7045C57.3654 37.7045 56.5925 36.9317 56.5925 35.9783Z" fill="#EDFFF8"/>
<path d="M38.4513 23.0874C35.6445 14.7234 26.5885 10.2181 18.2244 13.0248C9.86042 15.8316 5.3553 24.8878 8.16207 33.2518C8.99694 35.7396 10.405 37.9408 12.2594 39.7125L12.7481 46.7744C12.7642 47.0058 12.8391 47.229 12.9659 47.4231C13.3759 48.0509 14.2174 48.2276 14.8451 47.8174L20.7753 43.9453C23.3036 44.3534 25.9046 44.1479 28.3888 43.3142C36.7529 40.5074 41.258 31.4515 38.4513 23.0874Z" fill="#EDFFF8"/>
</g>
</g>
</g>
<defs>
<linearGradient id="paint0_linear_3837_3252" x1="37.4773" y1="54.0896" x2="14.473" y2="28.0215" gradientUnits="userSpaceOnUse">
<stop stop-color="#0580A1"/>
<stop offset="0.5" stop-color="#086490"/>
<stop offset="1" stop-color="#0B487F"/>
</linearGradient>
<linearGradient id="paint1_linear_3837_3252" x1="24.0911" y1="42.1965" x2="20.0431" y2="60.6313" gradientUnits="userSpaceOnUse">
<stop stop-color="#47229F" stop-opacity="0"/>
<stop offset="0.25" stop-color="#28125D" stop-opacity="0.4"/>
<stop offset="0.5" stop-color="#09011B" stop-opacity="0.8"/>
<stop offset="0.75" stop-color="#28125D" stop-opacity="0.4"/>
<stop offset="1" stop-color="#47229F" stop-opacity="0"/>
</linearGradient>
<linearGradient id="paint2_linear_3837_3252" x1="11.9108" y1="29.7362" x2="19.8237" y2="31.6069" gradientUnits="userSpaceOnUse">
<stop stop-color="#47229F" stop-opacity="0"/>
<stop offset="0.25" stop-color="#28125D" stop-opacity="0.405"/>
<stop offset="0.5" stop-color="#09011B" stop-opacity="0.81"/>
<stop offset="0.75" stop-color="#28125D" stop-opacity="0.405"/>
<stop offset="1" stop-color="#47229F" stop-opacity="0"/>
</linearGradient>
<radialGradient id="paint3_radial_3837_3252" cx="0" cy="0" r="1" gradientUnits="userSpaceOnUse" gradientTransform="translate(58.0525 29.1557) rotate(-13.9084) scale(32.7822 32.7822)">
<stop stop-color="#D5C41C"/>
<stop offset="0.5" stop-color="#94BC46"/>
<stop offset="1" stop-color="#53B571"/>
</radialGradient>
<linearGradient id="paint4_linear_3837_3252" x1="24.2686" y1="17.9626" x2="51.872" y2="63.0934" gradientUnits="userSpaceOnUse">
<stop stop-color="#0075D7"/>
<stop offset="0.5" stop-color="#1AA7DE"/>
<stop offset="1" stop-color="#33D9E4"/>
</linearGradient>
<clipPath id="clip0_3837_3252">
<rect width="72" height="72" fill="white"/>
</clipPath>
</defs>
</svg>
