<svg width="72" height="72" viewBox="0 0 72 72" fill="none" xmlns="http://www.w3.org/2000/svg">
<g clip-path="url(#clip0_3837_3102)">
<mask id="mask0_3837_3102" style="mask-type:luminance" maskUnits="userSpaceOnUse" x="0" y="0" width="72" height="72">
<path d="M72 0H0V72H72V0Z" fill="white"/>
</mask>
<g mask="url(#mask0_3837_3102)">
<mask id="mask1_3837_3102" style="mask-type:luminance" maskUnits="userSpaceOnUse" x="-1" y="-1" width="74" height="74">
<path d="M-0.25 -0.25H72.25V72.25H-0.25V-0.25Z" fill="white"/>
</mask>
<g mask="url(#mask1_3837_3102)">
<path d="M38.9757 24.9868L11.5066 26.8534C10.6135 26.914 9.87466 27.478 9.54801 28.2497L9.374 28.9689C9.36598 29.077 9.36545 29.1869 9.373 29.298L11.2393 56.7671C11.2964 57.6064 11.798 58.3095 12.4985 58.6622L13.506 58.906C13.5649 58.9065 13.6243 58.9048 13.6841 58.9007L41.1532 57.0342C42.4176 56.9483 43.3726 55.8538 43.2867 54.5895L41.4203 27.1204C41.3506 26.0962 40.6191 25.2748 39.6716 25.0455C39.4496 24.9918 39.2156 24.9706 38.9757 24.9868Z" fill="url(#paint0_linear_3837_3102)"/>
<path d="M16.4778 26.5156L11.5063 26.8533C11.2286 26.8722 10.9658 26.9398 10.7256 27.0471C10.1295 27.5474 9.65596 28.2026 9.37363 28.9705C9.36568 29.0778 9.36526 29.1873 9.3727 29.298L11.2392 56.7671C11.2909 57.5282 11.7082 58.1773 12.3079 58.5547L13.726 58.8978L41.153 57.0342C42.4174 56.9483 43.3726 55.8538 43.2866 54.5895L41.7954 32.6412L16.4778 26.5156Z" fill="url(#paint1_linear_3837_3102)"/>
<path d="M16.4779 26.5156L11.5063 26.8533C11.2286 26.8722 10.9658 26.9398 10.7256 27.0471C10.1295 27.5474 9.65596 28.2026 9.37363 28.9705C9.36568 29.0778 9.36526 29.1873 9.3727 29.298L10.5164 45.9589L42.2633 50.0345L41.7954 32.6412L16.4779 26.5156Z" fill="url(#paint2_linear_3837_3102)"/>
<path d="M28.2088 16.0875L26.6124 46.4581C26.539 47.8559 27.6127 49.0485 29.0104 49.1221L59.3807 50.7183C60.7785 50.7918 61.9712 49.7182 62.0446 48.3204L63.6411 17.95C63.7145 16.5521 62.6409 15.3595 61.243 15.286L30.8727 13.6897C30.6455 13.6777 30.4239 13.6961 30.2115 13.7412C29.117 13.9738 28.2703 14.9171 28.2088 16.0875Z" fill="url(#paint3_radial_3837_3102)"/>
<path d="M8.32195 14.9849C4.72696 15.2362 2.01626 18.3545 2.2676 21.9495L4.54317 54.4973C4.79452 58.0925 7.91273 60.803 11.5077 60.5517L63.5843 56.9108C67.1793 56.6594 69.89 53.5414 69.6386 49.9462L67.3631 17.3983C67.1117 13.8034 63.9935 11.0927 60.3985 11.344L8.32195 14.9849Z" fill="url(#paint4_linear_3837_3102)"/>
<path d="M46.8042 46.2039C46.8042 45.2507 47.5769 44.4778 48.5301 44.4777L55.3251 44.472C56.2785 44.4719 57.0515 45.2446 57.0515 46.198C57.0515 47.1514 56.2787 47.9242 55.3253 47.9242L48.5306 47.9301C47.5772 47.9301 46.8042 47.1573 46.8042 46.2039Z" fill="#EDFFF8"/>
<path d="M56.1069 35.9785C56.1069 35.0251 56.8798 34.2523 57.8332 34.2523L58.346 34.2593C59.2994 34.2593 60.0723 35.0321 60.0723 35.9855C60.0723 36.9389 59.2994 37.7117 58.346 37.7117L57.8332 37.7047C56.8798 37.7047 56.1069 36.9319 56.1069 35.9785Z" fill="#EDFFF8"/>
<path d="M56.5923 25.4785C56.5923 24.5251 57.3651 23.7523 58.3185 23.7523L58.3461 23.7568C59.2994 23.7568 60.0723 24.5296 60.0723 25.483C60.0723 26.4364 59.2994 27.2092 58.3461 27.2092L58.3185 27.2047C57.3651 27.2047 56.5923 26.4319 56.5923 25.4785Z" fill="#EDFFF8"/>
<path d="M38.645 25.0037C36.2906 16.8081 27.7379 12.0725 19.5423 14.4269C11.3467 16.7812 6.61133 25.3341 8.96568 33.5297C9.66598 35.9675 10.9319 38.1527 12.6472 39.9424L12.8187 46.782C12.8243 47.0062 12.8872 47.2249 13.0013 47.4178C13.3705 48.0414 14.1755 48.2478 14.7991 47.8784L20.6899 44.3918C23.1139 44.8934 25.6341 44.8056 28.0683 44.1064C36.2639 41.752 40.9994 33.1993 38.645 25.0037Z" fill="#EDFFF8"/>
</g>
</g>
</g>
<defs>
<linearGradient id="paint0_linear_3837_3102" x1="38.2719" y1="54.9644" x2="13.045" y2="28.4649" gradientUnits="userSpaceOnUse">
<stop stop-color="#0580A1"/>
<stop offset="0.5" stop-color="#086490"/>
<stop offset="1" stop-color="#0B487F"/>
</linearGradient>
<linearGradient id="paint1_linear_3837_3102" x1="23.7226" y1="42.9893" x2="20.2058" y2="62.4819" gradientUnits="userSpaceOnUse">
<stop stop-color="#47229F" stop-opacity="0"/>
<stop offset="0.25" stop-color="#28125D" stop-opacity="0.4"/>
<stop offset="0.5" stop-color="#09011B" stop-opacity="0.8"/>
<stop offset="0.75" stop-color="#28125D" stop-opacity="0.4"/>
<stop offset="1" stop-color="#47229F" stop-opacity="0"/>
</linearGradient>
<linearGradient id="paint2_linear_3837_3102" x1="10.4188" y1="30.3698" x2="18.8144" y2="32.0227" gradientUnits="userSpaceOnUse">
<stop stop-color="#47229F" stop-opacity="0"/>
<stop offset="0.25" stop-color="#28125D" stop-opacity="0.405"/>
<stop offset="0.5" stop-color="#09011B" stop-opacity="0.81"/>
<stop offset="0.75" stop-color="#28125D" stop-opacity="0.405"/>
<stop offset="1" stop-color="#47229F" stop-opacity="0"/>
</linearGradient>
<radialGradient id="paint3_radial_3837_3102" cx="0" cy="0" r="1" gradientUnits="userSpaceOnUse" gradientTransform="translate(58.6664 28.4117) rotate(-11.9912) scale(33.9368)">
<stop stop-color="#D5C41C"/>
<stop offset="0.5" stop-color="#94BC46"/>
<stop offset="1" stop-color="#53B571"/>
</radialGradient>
<linearGradient id="paint4_linear_3837_3102" x1="24.6036" y1="18.0438" x2="51.3891" y2="62.952" gradientUnits="userSpaceOnUse">
<stop stop-color="#0075D7"/>
<stop offset="0.5" stop-color="#1AA7DE"/>
<stop offset="1" stop-color="#33D9E4"/>
</linearGradient>
<clipPath id="clip0_3837_3102">
<rect width="72" height="72" fill="white"/>
</clipPath>
</defs>
</svg>
