<svg width="72" height="72" viewBox="0 0 72 72" fill="none" xmlns="http://www.w3.org/2000/svg">
<g clip-path="url(#clip0_3837_2852)">
<mask id="mask0_3837_2852" style="mask-type:luminance" maskUnits="userSpaceOnUse" x="0" y="0" width="72" height="72">
<path d="M72 0H0V72H72V0Z" fill="white"/>
</mask>
<g mask="url(#mask0_3837_2852)">
<mask id="mask1_3837_2852" style="mask-type:luminance" maskUnits="userSpaceOnUse" x="-1" y="-1" width="74" height="74">
<path d="M-0.25 -0.25H72.25V72.25H-0.25V-0.25Z" fill="white"/>
</mask>
<g mask="url(#mask1_3837_2852)">
<path d="M36.725 21.3591L2.74741 31.2134C1.64263 31.5337 0.869261 32.4438 0.670152 33.502L0.648327 34.4525C0.667807 34.5904 0.697194 34.7285 0.737068 34.8661L10.5911 68.8437C10.8922 69.8818 11.7142 70.6274 12.6902 70.8787L14.0218 70.9093C14.0959 70.8939 14.1699 70.8755 14.2439 70.854L48.2215 60.9998C49.7855 60.5462 50.6853 58.9109 50.2318 57.347L40.3776 23.3695C40.0101 22.1025 38.867 21.2713 37.6147 21.2425C37.3213 21.2358 37.0218 21.2731 36.725 21.3591Z" fill="url(#paint0_linear_3837_2852)"/>
<path d="M8.8966 29.4299L2.74712 31.2134C2.40356 31.3129 2.09209 31.4697 1.81997 31.6701C1.20829 32.4612 0.79292 33.4133 0.648414 34.4547C0.667776 34.5916 0.697174 34.7291 0.736778 34.866L10.5911 68.8437C10.864 69.7851 11.5654 70.486 12.4216 70.7958L14.2959 70.8389L48.2214 60.9998C49.7853 60.5462 50.6853 58.9109 50.2318 57.347L42.3582 30.1982L8.8966 29.4299Z" fill="url(#paint1_linear_3837_2852)"/>
<path d="M8.89674 29.43L2.74712 31.2134C2.40356 31.3129 2.09209 31.4697 1.81997 31.6701C1.20829 32.4612 0.79292 33.4133 0.648414 34.4547C0.667776 34.5916 0.697174 34.7291 0.736778 34.866L6.72821 55.4714L47.7015 51.9079L42.3582 30.1982L8.89674 29.43Z" fill="url(#paint2_linear_3837_2852)"/>
<path d="M30.1001 3.35726L21.4105 38.5833C21.0107 40.2046 22.0009 41.843 23.6221 42.2431L58.8479 50.9323C60.4691 51.3323 62.1076 50.3422 62.5075 48.7209L71.1971 13.4951C71.597 11.8738 70.6068 10.2353 68.9854 9.83535L33.7597 1.14593C33.4962 1.0809 33.2325 1.05266 32.9735 1.05783C31.6388 1.0846 30.435 1.9997 30.1001 3.35726Z" fill="url(#paint3_radial_3837_2852)"/>
<path d="M11.4602 14.8009C8.0975 14.8235 5.38965 17.5679 5.41224 20.9307L5.61676 51.3757C5.63935 54.7386 8.38383 57.4463 11.7466 57.4237L60.4586 57.0965C63.8213 57.0739 66.5292 54.3296 66.5066 50.9667L66.3021 20.5216C66.2795 17.1589 63.535 14.451 60.1723 14.4736L11.4602 14.8009Z" fill="url(#paint4_linear_3837_2852)"/>
<path d="M41.9475 46.1989C41.9475 45.2456 42.7202 44.4728 43.6734 44.4726L55.3252 44.472C56.2786 44.4719 57.0516 45.2446 57.0516 46.198C57.0516 47.1514 56.2787 47.9242 55.3254 47.9242L43.6739 47.9251C42.7205 47.9251 41.9475 47.1522 41.9475 46.1989Z" fill="#EDFFF8"/>
<path d="M46.8228 35.9831C46.8228 35.0297 47.5956 34.2569 48.549 34.2569L58.3464 34.2593C59.2997 34.2593 60.0726 35.0321 60.0726 35.9855C60.0726 36.9389 59.2997 37.7117 58.3464 37.7117L48.549 37.7093C47.5956 37.7093 46.8228 36.9365 46.8228 35.9831Z" fill="#EDFFF8"/>
<path d="M54.6396 25.4791C54.6396 24.5257 55.4125 23.7529 56.3659 23.7529L58.3463 23.7568C59.2996 23.7568 60.0725 24.5296 60.0725 25.483C60.0725 26.4364 59.2996 27.2092 58.3463 27.2092L56.3659 27.2053C55.4125 27.2053 54.6396 26.4325 54.6396 25.4791Z" fill="#EDFFF8"/>
<path d="M37.6054 35.1362C37.4148 28.2953 31.7145 22.9038 24.8736 23.0943C18.0326 23.2849 12.6413 28.9854 12.8319 35.8263C12.8886 37.8611 13.4354 39.8128 14.4106 41.5469L13.1758 46.8973C13.1353 47.0727 13.1404 47.2552 13.1905 47.4279C13.3528 47.9865 13.9372 48.308 14.4957 48.1456L19.7717 46.614C21.5554 47.4887 23.5318 47.9246 25.5637 47.868C32.4046 47.6774 37.7959 41.9771 37.6054 35.1362Z" fill="#EDFFF8"/>
</g>
</g>
</g>
<defs>
<linearGradient id="paint0_linear_3837_2852" x1="44.038" y1="59.1889" x2="5.11949" y2="32.816" gradientUnits="userSpaceOnUse">
<stop stop-color="#0580A1"/>
<stop offset="0.5" stop-color="#086490"/>
<stop offset="1" stop-color="#0B487F"/>
</linearGradient>
<linearGradient id="paint1_linear_3837_2852" x1="22.4969" y1="48.1321" x2="22.7596" y2="64.4579" gradientUnits="userSpaceOnUse">
<stop stop-color="#47229F" stop-opacity="0"/>
<stop offset="0.25" stop-color="#28125D" stop-opacity="0.4"/>
<stop offset="0.5" stop-color="#09011B" stop-opacity="0.8"/>
<stop offset="0.75" stop-color="#28125D" stop-opacity="0.4"/>
<stop offset="1" stop-color="#47229F" stop-opacity="0"/>
</linearGradient>
<linearGradient id="paint2_linear_3837_2852" x1="2.34323" y1="35.9258" x2="13.336" y2="35.7054" gradientUnits="userSpaceOnUse">
<stop stop-color="#47229F" stop-opacity="0"/>
<stop offset="0.25" stop-color="#28125D" stop-opacity="0.405"/>
<stop offset="0.5" stop-color="#09011B" stop-opacity="0.81"/>
<stop offset="0.75" stop-color="#28125D" stop-opacity="0.405"/>
<stop offset="1" stop-color="#47229F" stop-opacity="0"/>
</linearGradient>
<radialGradient id="paint3_radial_3837_2852" cx="0" cy="0" r="1" gradientUnits="userSpaceOnUse" gradientTransform="translate(63.0194 24.6358) rotate(-1.14306) scale(40.4864)">
<stop stop-color="#D5C41C"/>
<stop offset="0.5" stop-color="#94BC46"/>
<stop offset="1" stop-color="#53B571"/>
</radialGradient>
<linearGradient id="paint4_linear_3837_2852" x1="26.443" y1="18.6073" x2="48.7461" y2="62.0052" gradientUnits="userSpaceOnUse">
<stop stop-color="#0075D7"/>
<stop offset="0.5" stop-color="#1AA7DE"/>
<stop offset="1" stop-color="#33D9E4"/>
</linearGradient>
<clipPath id="clip0_3837_2852">
<rect width="72" height="72" fill="white"/>
</clipPath>
</defs>
</svg>
