<svg width="72" height="72" viewBox="0 0 72 72" fill="none" xmlns="http://www.w3.org/2000/svg">
<g clip-path="url(#clip0_3837_4352)">
<mask id="mask0_3837_4352" style="mask-type:luminance" maskUnits="userSpaceOnUse" x="0" y="0" width="72" height="72">
<path d="M72 0H0V72H72V0Z" fill="white"/>
</mask>
<g mask="url(#mask0_3837_4352)">
<mask id="mask1_3837_4352" style="mask-type:luminance" maskUnits="userSpaceOnUse" x="-1" y="-1" width="74" height="74">
<path d="M-0.25 -0.25H72.25V72.25H-0.25V-0.25Z" fill="white"/>
</mask>
<g mask="url(#mask1_3837_4352)">
<path d="M36.6145 21.2188L2.40346 31.4354C1.29108 31.7675 0.517881 32.6922 0.325407 33.7617L0.310985 34.7211C0.331747 34.8601 0.362509 34.9993 0.403849 35.1377L10.6202 69.349C10.9325 70.3942 11.768 71.1401 12.755 71.3859L14.099 71.4061C14.1737 71.3899 14.2482 71.3707 14.3227 71.3484L48.5339 61.1319C50.1086 60.6617 51.0036 59.0041 50.5334 57.4295L40.3169 23.2184C39.9358 21.9427 38.7756 21.113 37.5116 21.094C37.2154 21.0895 36.9134 21.1296 36.6145 21.2188Z" fill="url(#paint0_linear_3837_4352)"/>
<path d="M8.59465 29.5864L2.4029 31.4354C2.05698 31.5386 1.7439 31.6993 1.47087 31.9038C0.859901 32.707 0.448332 33.6712 0.310827 34.7233C0.331463 34.8613 0.362231 34.9999 0.403294 35.1377L10.62 69.349C10.903 70.2968 11.6164 70.9985 12.483 71.3044L14.3748 71.3328L48.5335 61.1319C50.1082 60.6617 51.0034 59.0041 50.5331 57.4295L42.37 30.0941L8.59465 29.5864Z" fill="url(#paint1_linear_3837_4352)"/>
<path d="M8.59479 29.5864L2.4029 31.4354C2.05698 31.5386 1.7439 31.6993 1.47087 31.9038C0.859901 32.707 0.448332 33.6712 0.310827 34.7233C0.331463 34.8613 0.362231 34.9999 0.403294 35.1377L6.61463 55.8846L47.9361 51.9606L42.37 30.0941L8.59479 29.5864Z" fill="url(#paint2_linear_3837_4352)"/>
<path d="M30.2313 2.88582L21.2512 38.2617C20.8381 39.8899 21.8231 41.5447 23.4511 41.9582L58.8267 50.9379C60.4548 51.3512 62.1098 50.3664 62.5231 48.7382L71.5031 13.3626C71.9164 11.7344 70.9315 10.0794 69.3032 9.66612L33.9276 0.68621C33.663 0.619005 33.3979 0.588808 33.1374 0.592248C31.7946 0.610124 30.5774 1.52248 30.2313 2.88582Z" fill="url(#paint3_radial_3837_4352)"/>
<path d="M11.5793 14.8035C8.22606 14.8181 5.51945 17.5485 5.53411 20.9018L5.66684 51.2611C5.6815 54.6146 8.41187 57.321 11.7651 57.3064L60.3401 57.094C63.6933 57.0793 66.3999 54.3491 66.3853 50.9957L66.2525 20.6363C66.2379 17.2831 63.5075 14.5765 60.1543 14.5911L11.5793 14.8035Z" fill="url(#paint4_linear_3837_4352)"/>
<path d="M39.7919 41.4286C39.9079 40.8468 40.4736 40.4691 41.0554 40.585L47.1921 41.8088C47.774 41.9247 48.1518 42.4904 48.0359 43.0723C47.9199 43.6542 47.3541 44.0319 46.7722 43.9159L40.6356 42.6923C40.0537 42.5763 39.676 42.0105 39.7919 41.4286Z" fill="#EDFFF8"/>
<path d="M39.7014 35.991C39.7014 35.3976 40.1824 34.9166 40.7758 34.9166L48.657 34.9197C49.2504 34.9197 49.7314 35.4007 49.7314 35.994C49.7314 36.5874 49.2504 37.0684 48.657 37.0684L40.7758 37.0653C40.1824 37.0653 39.7014 36.5843 39.7014 35.991Z" fill="#EDFFF8"/>
<path d="M39.8101 30.5572C39.6941 29.9753 40.0718 29.4095 40.6537 29.2935L48.3896 27.7544C48.9715 27.6384 49.5373 28.0161 49.6532 28.598C49.7692 29.1799 49.3915 29.7456 48.8096 29.8616L41.0737 31.4008C40.4918 31.5167 39.9261 31.1391 39.8101 30.5572Z" fill="#EDFFF8"/>
<path d="M37.5004 35.5081C37.3819 28.7319 31.7924 23.3344 25.0162 23.453C18.24 23.5715 12.8427 29.1611 12.9612 35.9373C12.9964 37.9529 13.5179 39.8912 14.4658 41.6184L13.1881 46.904C13.1463 47.0772 13.1494 47.2581 13.1973 47.4296C13.3522 47.9844 13.9276 48.3087 14.4824 48.1536L19.7227 46.6911C21.48 47.5756 23.4327 48.0275 25.4453 47.9923C32.2216 47.8738 37.6189 42.2843 37.5004 35.5081Z" fill="#EDFFF8"/>
</g>
</g>
</g>
<defs>
<linearGradient id="paint0_linear_3837_4352" x1="44.2975" y1="59.3378" x2="4.81016" y2="33.0338" gradientUnits="userSpaceOnUse">
<stop stop-color="#0580A1"/>
<stop offset="0.5" stop-color="#086490"/>
<stop offset="1" stop-color="#0B487F"/>
</linearGradient>
<linearGradient id="paint1_linear_3837_4352" x1="22.4696" y1="48.3517" x2="22.7823" y2="63.781" gradientUnits="userSpaceOnUse">
<stop stop-color="#47229F" stop-opacity="0"/>
<stop offset="0.25" stop-color="#28125D" stop-opacity="0.4"/>
<stop offset="0.5" stop-color="#09011B" stop-opacity="0.8"/>
<stop offset="0.75" stop-color="#28125D" stop-opacity="0.4"/>
<stop offset="1" stop-color="#47229F" stop-opacity="0"/>
</linearGradient>
<linearGradient id="paint2_linear_3837_4352" x1="2.03299" y1="36.1944" x2="13.1251" y2="35.884" gradientUnits="userSpaceOnUse">
<stop stop-color="#47229F" stop-opacity="0"/>
<stop offset="0.25" stop-color="#28125D" stop-opacity="0.405"/>
<stop offset="0.5" stop-color="#09011B" stop-opacity="0.81"/>
<stop offset="0.75" stop-color="#28125D" stop-opacity="0.405"/>
<stop offset="1" stop-color="#47229F" stop-opacity="0"/>
</linearGradient>
<radialGradient id="paint3_radial_3837_4352" cx="0" cy="0" r="1" gradientUnits="userSpaceOnUse" gradientTransform="translate(63.2014 24.5138) rotate(-0.75663) scale(40.7273 40.7273)">
<stop stop-color="#D5C41C"/>
<stop offset="0.5" stop-color="#94BC46"/>
<stop offset="1" stop-color="#53B571"/>
</radialGradient>
<linearGradient id="paint4_linear_3837_4352" x1="26.5108" y1="18.6342" x2="48.6492" y2="61.9614" gradientUnits="userSpaceOnUse">
<stop stop-color="#0075D7"/>
<stop offset="0.5" stop-color="#1AA7DE"/>
<stop offset="1" stop-color="#33D9E4"/>
</linearGradient>
<clipPath id="clip0_3837_4352">
<rect width="72" height="72" fill="white"/>
</clipPath>
</defs>
</svg>
