<svg width="72" height="72" viewBox="0 0 72 72" fill="none" xmlns="http://www.w3.org/2000/svg">
<g clip-path="url(#clip0_2723_56790)">
<mask id="mask0_2723_56790" style="mask-type:luminance" maskUnits="userSpaceOnUse" x="0" y="0" width="72" height="72">
<path d="M72 0H0V72H72V0Z" fill="white"/>
</mask>
<g mask="url(#mask0_2723_56790)">
<mask id="mask1_2723_56790" style="mask-type:luminance" maskUnits="userSpaceOnUse" x="-1" y="-1" width="74" height="74">
<path d="M-0.25 -0.25H72.25V72.25H-0.25V-0.25Z" fill="white"/>
</mask>
<g mask="url(#mask1_2723_56790)">
<g opacity="0.310345">
<path d="M29.9341 37.1418C29.9341 48.8204 39.4015 58.2877 51.08 58.2877C62.7585 58.2877 72.2257 48.8204 72.2257 37.1418C72.2257 25.4634 62.7585 15.9961 51.08 15.9961C39.4015 15.9961 29.9341 25.4634 29.9341 37.1418Z" fill="url(#paint0_linear_2723_56790)"/>
</g>
<path d="M38.5801 37.142C38.5801 44.0456 44.1766 49.642 51.0801 49.642C57.9837 49.642 63.58 44.0456 63.58 37.142C63.58 30.2385 57.9837 24.6421 51.0801 24.6421C44.1766 24.6421 38.5801 30.2385 38.5801 37.142Z" fill="url(#paint1_linear_2723_56790)"/>
<path d="M12.2783 31.9752C5.26856 32.5185 -0.25 38.3787 -0.25 45.5276C-0.25 53.0353 5.83609 59.1213 13.3438 59.1213H34.4897H36H55.6355C64.8115 59.1213 72.25 51.6828 72.25 42.5068C72.25 33.3308 64.8115 25.8923 55.6355 25.8923C55.2711 25.8923 54.9094 25.9039 54.551 25.9271C50.7584 18.7217 43.1978 13.8088 34.4897 13.8088C23.5142 13.8088 14.3615 21.6132 12.2783 31.9752Z" fill="url(#paint2_linear_2723_56790)"/>
<path d="M13.3438 31.9338C5.83608 31.9338 -0.25 38.0199 -0.25 45.5276C-0.25 53.0353 5.83608 59.1213 13.3438 59.1213H36V50.0588C36 40.0488 27.8852 31.9338 17.875 31.9338H13.3438Z" fill="url(#paint3_radial_2723_56790)"/>
<path d="M11.8335 36.4651C11.8335 48.9779 21.977 59.1213 34.4897 59.1213C47.0022 59.1213 57.1458 48.9779 57.1458 36.4651C57.1458 23.9525 47.0022 13.8088 34.4897 13.8088C21.977 13.8088 11.8335 23.9525 11.8335 36.4651Z" fill="url(#paint4_radial_2723_56790)"/>
<path d="M39.021 42.5069C39.021 51.6829 46.4595 59.1214 55.6355 59.1214C64.8116 59.1214 72.2501 51.6829 72.2501 42.5069C72.2501 33.331 64.8116 25.8923 55.6355 25.8923C46.4595 25.8923 39.021 33.331 39.021 42.5069Z" fill="url(#paint5_radial_2723_56790)"/>
</g>
</g>
</g>
<defs>
<linearGradient id="paint0_linear_2723_56790" x1="39.6901" y1="23.1967" x2="58.7772" y2="47.3589" gradientUnits="userSpaceOnUse">
<stop stop-color="#EEB82E"/>
<stop offset="0.5" stop-color="#EE931F"/>
<stop offset="1" stop-color="#EF6D0F"/>
</linearGradient>
<linearGradient id="paint1_linear_2723_56790" x1="44.3472" y1="28.8986" x2="55.6302" y2="43.1817" gradientUnits="userSpaceOnUse">
<stop stop-color="#EEB82E"/>
<stop offset="0.5" stop-color="#EE931F"/>
<stop offset="1" stop-color="#EF6D0F"/>
</linearGradient>
<linearGradient id="paint2_linear_2723_56790" x1="36" y1="13.8507" x2="36.1768" y2="57.967" gradientUnits="userSpaceOnUse">
<stop stop-color="#AFCEFA"/>
<stop offset="0.39" stop-color="#B1D0F9"/>
<stop offset="0.78" stop-color="#B4D2F9"/>
<stop offset="0.89" stop-color="#90B4EE"/>
<stop offset="1" stop-color="#6C95E3"/>
</linearGradient>
<radialGradient id="paint3_radial_2723_56790" cx="0" cy="0" r="1" gradientUnits="userSpaceOnUse" gradientTransform="translate(23.2558 60.4173) scale(31.8471 31.8471)">
<stop offset="0.69" stop-color="#8FABDD" stop-opacity="0"/>
<stop offset="0.84" stop-color="#7296D8" stop-opacity="0.5"/>
<stop offset="1" stop-color="#5582D3"/>
</radialGradient>
<radialGradient id="paint4_radial_2723_56790" cx="0" cy="0" r="1" gradientUnits="userSpaceOnUse" gradientTransform="translate(35.2332 55.8023) scale(42.1116 42.1116)">
<stop offset="0.6" stop-color="#C7DFFF" stop-opacity="0"/>
<stop offset="0.8" stop-color="#8FB0EC" stop-opacity="0.5"/>
<stop offset="1" stop-color="#5782DA"/>
</radialGradient>
<radialGradient id="paint5_radial_2723_56790" cx="0" cy="0" r="1" gradientUnits="userSpaceOnUse" gradientTransform="translate(46.087 56.0491) scale(33.2164)">
<stop offset="0.48" stop-color="#8FABDD" stop-opacity="0"/>
<stop offset="0.74" stop-color="#7396DC" stop-opacity="0.5"/>
<stop offset="1" stop-color="#5782DA"/>
</radialGradient>
<clipPath id="clip0_2723_56790">
<rect width="72" height="72" fill="white"/>
</clipPath>
</defs>
</svg>
