<svg width="72" height="72" viewBox="0 0 72 72" fill="none" xmlns="http://www.w3.org/2000/svg">
<g clip-path="url(#clip0_4044_21974)">
<mask id="mask0_4044_21974" style="mask-type:luminance" maskUnits="userSpaceOnUse" x="0" y="0" width="72" height="72">
<path d="M72 0H0V72H72V0Z" fill="white"/>
</mask>
<g mask="url(#mask0_4044_21974)">
<mask id="mask1_4044_21974" style="mask-type:luminance" maskUnits="userSpaceOnUse" x="-1" y="-1" width="74" height="74">
<path d="M-0.25 -0.25H72.25V72.25H-0.25V-0.25Z" fill="white"/>
</mask>
<g mask="url(#mask1_4044_21974)">
<path d="M49.1383 66.2407C48.9318 66.2436 48.7265 66.3559 48.6295 66.5796L47.3793 69.4631L47.3833 69.4631C47.3652 69.4987 47.3481 69.535 47.332 69.5721C46.9117 70.5415 47.3587 71.6672 48.3304 72.0864C49.3021 72.5056 50.4305 72.0596 50.8508 71.0903C51.0922 70.5337 51.0476 69.9257 50.7819 69.4294L49.6714 66.598C49.5795 66.3634 49.3678 66.2437 49.1545 66.2407H49.1383Z" fill="url(#paint0_linear_4044_21974)"/>
<path d="M29.6224 2.0791H9.52191V69.9191H29.6224V2.0791Z" fill="url(#paint1_linear_4044_21974)"/>
<path d="M9.52173 2.0791V69.9191H14.8339V55.3507H19.1841C20.6672 55.3507 21.8697 54.1932 21.8697 52.7655C21.8697 51.3378 20.6672 50.1803 19.1841 50.1803H14.8339V39.5284H23.1681C24.6513 39.5284 25.8536 38.3709 25.8536 36.9432C25.8536 35.5155 24.6513 34.3583 23.1681 34.3583H14.8339V23.7039H19.1841C20.6672 23.7039 21.8697 22.5465 21.8697 21.119C21.8697 19.6911 20.6672 18.5338 19.1841 18.5338H14.8339V2.0791H9.52173Z" fill="url(#paint2_linear_4044_21974)"/>
<path d="M37.2276 39.29L27.7083 44.7861C25.8963 45.8321 25.8963 48.4475 27.7083 49.4935L37.2276 54.9896C39.0395 56.0356 41.3045 54.728 41.3045 52.6359V41.644C41.3045 40.0572 40.002 38.9219 38.5824 38.9219C38.1299 38.9219 37.6656 39.0373 37.2276 39.29Z" fill="url(#paint3_linear_4044_21974)"/>
</g>
</g>
</g>
<defs>
<linearGradient id="paint0_linear_4044_21974" x1="51.0068" y1="71.6521" x2="47.4604" y2="67.6753" gradientUnits="userSpaceOnUse">
<stop stop-color="#1493DF"/>
<stop offset="0.5" stop-color="#28AFEA"/>
<stop offset="1" stop-color="#3CCBF4"/>
</linearGradient>
<linearGradient id="paint1_linear_4044_21974" x1="11.3313" y1="36.9351" x2="37.4074" y2="36.8146" gradientUnits="userSpaceOnUse">
<stop stop-color="#28AEEA"/>
<stop offset="0.5" stop-color="#32BCEF"/>
<stop offset="1" stop-color="#3CCBF4"/>
</linearGradient>
<linearGradient id="paint2_linear_4044_21974" x1="3.47059" y1="35.9991" x2="25.5238" y2="35.9991" gradientUnits="userSpaceOnUse">
<stop stop-color="#184F85"/>
<stop offset="0.5" stop-color="#135F9E"/>
<stop offset="1" stop-color="#0F6EB7"/>
</linearGradient>
<linearGradient id="paint3_linear_4044_21974" x1="19.3833" y1="47.4788" x2="41.4366" y2="47.4788" gradientUnits="userSpaceOnUse">
<stop stop-color="#184F85"/>
<stop offset="0.5" stop-color="#135F9E"/>
<stop offset="1" stop-color="#0F6EB7"/>
</linearGradient>
<clipPath id="clip0_4044_21974">
<rect width="72" height="72" fill="white"/>
</clipPath>
</defs>
</svg>
