<svg width="72" height="72" viewBox="0 0 72 72" fill="none" xmlns="http://www.w3.org/2000/svg">
<g clip-path="url(#clip0_5029_53183)">
<mask id="mask0_5029_53183" style="mask-type:luminance" maskUnits="userSpaceOnUse" x="0" y="0" width="72" height="72">
<path d="M72 0H0V72H72V0Z" fill="white"/>
</mask>
<g mask="url(#mask0_5029_53183)">
<mask id="mask1_5029_53183" style="mask-type:luminance" maskUnits="userSpaceOnUse" x="-1" y="-1" width="74" height="74">
<path d="M-0.25 -0.25H72.25V72.25H-0.25V-0.25Z" fill="white"/>
</mask>
<g mask="url(#mask1_5029_53183)">
<path d="M-0.10498 35.9993C-0.10498 55.9395 16.0598 72.1043 36 72.1043C55.9403 72.1043 72.105 55.9395 72.105 35.9993C72.105 16.059 55.9403 -0.105728 36 -0.105728C16.0598 -0.105728 -0.10498 16.059 -0.10498 35.9993Z" fill="url(#paint0_linear_5029_53183)"/>
<path d="M8.6922 35.9994C8.6922 51.0812 20.9183 63.3073 36 63.3073C51.0818 63.3073 63.3079 51.0812 63.3079 35.9994C63.3079 20.9177 51.0818 8.6916 36 8.6916C20.9183 8.6916 8.6922 20.9177 8.6922 35.9994Z" fill="url(#paint1_linear_5029_53183)"/>
<path d="M29.6579 27.966C29.6579 26.6364 30.6389 25.5588 31.8489 25.5588C33.0589 25.5588 34.0398 26.6364 34.0398 27.966V40.4801C34.0398 42.2172 33.688 43.6804 32.9847 44.8695C32.291 46.0586 31.3287 46.9533 30.0977 47.553C28.8764 48.1528 27.4695 48.4527 25.8769 48.4527C24.2844 48.4527 22.8678 48.1528 21.6269 47.553C20.396 46.9533 19.4287 46.0586 18.7252 44.8695C18.0317 43.6804 17.6849 42.2172 17.6849 40.4801V27.9741C17.6849 26.6401 18.669 25.5588 19.883 25.5588C21.0971 25.5588 22.0814 26.6401 22.0814 27.9741V40.4801C22.0814 41.4933 22.2328 42.3209 22.5357 42.9619C22.8384 43.603 23.2732 44.0735 23.8399 44.3734C24.4164 44.6733 25.0952 44.823 25.8769 44.823C26.6781 44.823 27.3571 44.6733 27.9141 44.3734C28.4807 44.0735 28.9106 43.603 29.2037 42.9619C29.5065 42.3209 29.6579 41.4933 29.6579 40.4801V27.966Z" fill="#EEB82E" fill-opacity="0.6"/>
<path d="M45.54 42.7646L49.8871 27.3114C50.1803 26.2694 51.0571 25.5588 52.0497 25.5588C53.6187 25.5588 54.7119 27.27 54.1784 28.8915L48.6939 45.562C48.1914 47.0896 46.8286 48.0663 45.3536 47.9562L45.54 42.7646ZM39.0598 25.5588C40.0483 25.5588 40.9212 26.2668 41.2123 27.3046L45.54 42.7646L45.3536 47.9562C44.108 48.0661 42.9499 47.2451 42.5274 45.953L36.9402 28.8705C36.4128 27.2581 37.5003 25.5588 39.0598 25.5588Z" fill="#EEB82E" fill-opacity="0.6"/>
<path d="M29.6579 27.772C29.6579 26.562 30.6389 25.5813 31.8489 25.5813C33.0589 25.5813 34.0398 26.562 34.0398 27.772V39.1612C34.0398 40.7422 33.688 42.0738 32.9847 43.1561C32.291 44.2383 31.3287 45.0526 30.0977 45.5983C28.8764 46.1442 27.4695 46.4172 25.8769 46.4172C24.2844 46.4172 22.8678 46.1442 21.6269 45.5983C20.396 45.0526 19.4287 44.2383 18.7252 43.1561C18.0317 42.0738 17.6849 40.7422 17.6849 39.1612V27.7794C17.6849 26.5653 18.669 25.5813 19.883 25.5813C21.0971 25.5813 22.0814 26.5653 22.0814 27.7794V39.1612C22.0814 40.0834 22.2328 40.8366 22.5357 41.4199C22.8384 42.0034 23.2732 42.4316 23.8399 42.7046C24.4164 42.9775 25.0952 43.1137 25.8769 43.1137C26.6781 43.1137 27.3571 42.9775 27.9141 42.7046C28.4807 42.4316 28.9106 42.0034 29.2037 41.4199C29.5065 40.8366 29.6579 40.0834 29.6579 39.1612V27.772Z" fill="#FFF3D7"/>
<path d="M45.54 41.2404L49.8871 27.1763C50.1803 26.228 51.0571 25.5813 52.0497 25.5813C53.6187 25.5813 54.7119 27.1387 54.1784 28.6144L48.6939 43.7863C48.1914 45.1766 46.8286 46.0655 45.3536 45.9654L45.54 41.2404ZM39.0598 25.5813C40.0483 25.5813 40.9212 26.2256 41.2123 27.1702L45.54 41.2404L45.3536 45.9654C44.108 46.0654 42.9499 45.3182 42.5274 44.1422L36.9402 28.5953C36.4128 27.1279 37.5003 25.5813 39.0598 25.5813Z" fill="#FFF3D7"/>
</g>
</g>
</g>
<defs>
<linearGradient id="paint0_linear_5029_53183" x1="50.3874" y1="53.5868" x2="16.9415" y2="12.5948" gradientUnits="userSpaceOnUse">
<stop stop-color="#EF6D0F" stop-opacity="0.217895"/>
<stop offset="0.5" stop-color="#EE931F" stop-opacity="0.217895"/>
<stop offset="1" stop-color="#EEB82E" stop-opacity="0.217895"/>
</linearGradient>
<linearGradient id="paint1_linear_5029_53183" x1="46.8818" y1="49.3017" x2="21.5852" y2="18.2976" gradientUnits="userSpaceOnUse">
<stop stop-color="#EF6D0F"/>
<stop offset="0.5" stop-color="#EE931F"/>
<stop offset="1" stop-color="#EEB82E"/>
</linearGradient>
<clipPath id="clip0_5029_53183">
<rect width="72" height="72" fill="white"/>
</clipPath>
</defs>
</svg>
