<svg width="72" height="72" viewBox="0 0 72 72" fill="none" xmlns="http://www.w3.org/2000/svg">
<g clip-path="url(#clip0_5029_53210)">
<mask id="mask0_5029_53210" style="mask-type:luminance" maskUnits="userSpaceOnUse" x="0" y="0" width="72" height="72">
<path d="M72 0H0V72H72V0Z" fill="white"/>
</mask>
<g mask="url(#mask0_5029_53210)">
<mask id="mask1_5029_53210" style="mask-type:luminance" maskUnits="userSpaceOnUse" x="-1" y="-1" width="74" height="74">
<path d="M-0.25 -0.25H72.25V72.25H-0.25V-0.25Z" fill="white"/>
</mask>
<g mask="url(#mask1_5029_53210)">
<path d="M-0.10498 35.9993C-0.10498 55.9395 16.0598 72.1043 36 72.1043C55.9403 72.1043 72.105 55.9395 72.105 35.9993C72.105 16.059 55.9403 -0.105728 36 -0.105728C16.0598 -0.105728 -0.10498 16.059 -0.10498 35.9993Z" fill="url(#paint0_linear_5029_53210)"/>
<path d="M5.63428 35.9994C5.63428 52.7699 19.2295 66.3651 36 66.3651C52.7706 66.3651 66.3657 52.7699 66.3657 35.9994C66.3657 19.2288 52.7706 5.63365 36 5.63365C19.2295 5.63365 5.63428 19.2288 5.63428 35.9994Z" fill="url(#paint1_linear_5029_53210)"/>
<path d="M29.8236 28.096C29.8236 26.8503 30.7789 25.8406 31.9573 25.8406C33.1357 25.8406 34.091 26.8503 34.091 28.096V39.8207C34.091 41.4482 33.7484 42.8191 33.0635 43.9332C32.3879 45.0474 31.4507 45.8857 30.2518 46.4475C29.0624 47.0095 27.6923 47.2904 26.1413 47.2904C24.5903 47.2904 23.2107 47.0095 22.0022 46.4475C20.8035 45.8857 19.8614 45.0474 19.1764 43.9332C18.5009 42.8191 18.1631 41.4482 18.1631 39.8207V28.1036C18.1631 26.8537 19.1215 25.8406 20.3039 25.8406C21.4863 25.8406 22.4448 26.8537 22.4448 28.1036V39.8207C22.4448 40.7701 22.5923 41.5454 22.8873 42.146C23.1821 42.7467 23.6055 43.1874 24.1575 43.4684C24.7189 43.7494 25.38 43.8897 26.1413 43.8897C26.9215 43.8897 27.5828 43.7494 28.1253 43.4684C28.6771 43.1874 29.0957 42.7467 29.3812 42.146C29.6761 41.5454 29.8236 40.7701 29.8236 39.8207V28.096Z" fill="#EEB82E" fill-opacity="0.6"/>
<path d="M45.2909 41.9612L49.5245 27.4827C49.8101 26.5064 50.664 25.8406 51.6307 25.8406C53.1587 25.8406 54.2234 27.4439 53.7038 28.9632L48.3625 44.5821C47.8731 46.0133 46.5459 46.9284 45.1094 46.8253L45.2909 41.9612ZM38.9799 25.8406C39.9426 25.8406 40.7928 26.504 41.0763 27.4764L45.2909 41.9612L45.1094 46.8253C43.8963 46.9283 42.7685 46.1591 42.357 44.9484L36.9157 28.9435C36.402 27.4328 37.4612 25.8406 38.9799 25.8406Z" fill="#EEB82E" fill-opacity="0.6"/>
<path d="M29.8236 27.9869C29.8236 26.8085 30.7789 25.8533 31.9573 25.8533C33.1357 25.8533 34.091 26.8085 34.091 27.9869V39.0787C34.091 40.6184 33.7484 41.9152 33.0635 42.9692C32.3879 44.0232 31.4507 44.8162 30.2518 45.3477C29.0624 45.8794 27.6923 46.1452 26.1413 46.1452C24.5903 46.1452 23.2107 45.8794 22.0022 45.3477C20.8035 44.8162 19.8614 44.0232 19.1764 42.9692C18.5009 41.9152 18.1631 40.6184 18.1631 39.0787V27.9941C18.1631 26.8117 19.1215 25.8533 20.3039 25.8533C21.4863 25.8533 22.4448 26.8117 22.4448 27.9941V39.0787C22.4448 39.9768 22.5923 40.7103 22.8873 41.2784C23.1821 41.8467 23.6055 42.2637 24.1575 42.5295C24.7189 42.7953 25.38 42.928 26.1413 42.928C26.9215 42.928 27.5828 42.7953 28.1253 42.5295C28.6771 42.2637 29.0957 41.8467 29.3812 41.2784C29.6761 40.7103 29.8236 39.9768 29.8236 39.0787V27.9869Z" fill="#FFF3D7"/>
<path d="M45.2909 41.1036L49.5245 27.4067C49.8101 26.4831 50.664 25.8533 51.6307 25.8533C53.1587 25.8533 54.2234 27.37 53.7038 28.8072L48.3625 43.583C47.8731 44.937 46.5459 45.8027 45.1094 45.7051L45.2909 41.1036ZM38.9799 25.8533C39.9426 25.8533 40.7928 26.4808 41.0763 27.4007L45.2909 41.1036L45.1094 45.7051C43.8963 45.8026 42.7685 45.0749 42.357 43.9296L36.9157 28.7886C36.402 27.3595 37.4612 25.8533 38.9799 25.8533Z" fill="#FFF3D7"/>
</g>
</g>
</g>
<defs>
<linearGradient id="paint0_linear_5029_53210" x1="50.3874" y1="53.5868" x2="16.9415" y2="12.5948" gradientUnits="userSpaceOnUse">
<stop stop-color="#EF6D0F" stop-opacity="0.198947"/>
<stop offset="0.5" stop-color="#EE931F" stop-opacity="0.198947"/>
<stop offset="1" stop-color="#EEB82E" stop-opacity="0.198947"/>
</linearGradient>
<linearGradient id="paint1_linear_5029_53210" x1="48.1003" y1="50.7912" x2="19.9711" y2="16.3153" gradientUnits="userSpaceOnUse">
<stop stop-color="#EF6D0F"/>
<stop offset="0.5" stop-color="#EE931F"/>
<stop offset="1" stop-color="#EEB82E"/>
</linearGradient>
<clipPath id="clip0_5029_53210">
<rect width="72" height="72" fill="white"/>
</clipPath>
</defs>
</svg>
