<svg width="72" height="72" viewBox="0 0 72 72" fill="none" xmlns="http://www.w3.org/2000/svg">
<g clip-path="url(#clip0_5029_53102)">
<mask id="mask0_5029_53102" style="mask-type:luminance" maskUnits="userSpaceOnUse" x="0" y="0" width="72" height="72">
<path d="M72 0H0V72H72V0Z" fill="white"/>
</mask>
<g mask="url(#mask0_5029_53102)">
<mask id="mask1_5029_53102" style="mask-type:luminance" maskUnits="userSpaceOnUse" x="-1" y="-1" width="74" height="74">
<path d="M-0.25 -0.25H72.25V72.25H-0.25V-0.25Z" fill="white"/>
</mask>
<g mask="url(#mask1_5029_53102)">
<path d="M-0.10498 35.9993C-0.10498 55.9395 16.0598 72.1043 36 72.1043C55.9403 72.1043 72.105 55.9395 72.105 35.9993C72.105 16.059 55.9403 -0.105728 36 -0.105728C16.0598 -0.105728 -0.10498 16.059 -0.10498 35.9993Z" fill="url(#paint0_linear_5029_53102)"/>
<path d="M10.498 35.9995C10.498 50.0839 21.9157 61.5015 36 61.5015C50.0844 61.5015 61.502 50.0839 61.502 35.9995C61.502 21.9151 50.0844 10.4975 36 10.4975C21.9157 10.4975 10.498 21.9151 10.498 35.9995Z" fill="url(#paint1_linear_5029_53102)"/>
<path d="M29.5601 27.9621C29.5601 26.5381 30.5562 25.3839 31.7849 25.3839C33.0135 25.3839 34.0096 26.5381 34.0096 27.9621V41.3654C34.0096 43.2259 33.6524 44.7931 32.9382 46.0667C32.2338 47.3403 31.2567 48.2986 30.0067 48.9408C28.7665 49.5833 27.3379 49.9045 25.7208 49.9045C24.1037 49.9045 22.6653 49.5833 21.4052 48.9408C20.1554 48.2986 19.1732 47.3403 18.4589 46.0667C17.7546 44.7931 17.4025 43.2259 17.4025 41.3654V27.9708C17.4025 26.542 18.4017 25.3839 19.6345 25.3839C20.8673 25.3839 21.8667 26.542 21.8667 27.9708V41.3654C21.8667 42.4506 22.0205 43.337 22.3281 44.0235C22.6355 44.7102 23.0769 45.2141 23.6524 45.5353C24.2378 45.8565 24.9271 46.0169 25.7208 46.0169C26.5343 46.0169 27.2238 45.8565 27.7894 45.5353C28.3647 45.2141 28.8012 44.7102 29.0989 44.0235C29.4063 43.337 29.5601 42.4506 29.5601 41.3654V27.9621Z" fill="#EEB82E" fill-opacity="0.6"/>
<path d="M45.6871 43.8123L50.1013 27.261C50.399 26.1449 51.2893 25.3839 52.2972 25.3839C53.8904 25.3839 55.0005 27.2167 54.4587 28.9534L48.8897 46.8084C48.3794 48.4445 46.9956 49.4907 45.4979 49.3728L45.6871 43.8123ZM39.107 25.3839C40.1107 25.3839 40.9971 26.1422 41.2927 27.2538L45.6871 43.8123L45.4979 49.3728C44.2331 49.4905 43.0571 48.6111 42.6281 47.2272L36.9547 28.9309C36.4192 27.204 37.5235 25.3839 39.107 25.3839Z" fill="#EEB82E" fill-opacity="0.6"/>
<path d="M29.5601 27.6452C29.5601 26.4165 30.5562 25.4206 31.7849 25.4206C33.0135 25.4206 34.0096 26.4165 34.0096 27.6452V39.21C34.0096 40.8153 33.6524 42.1675 32.9382 43.2664C32.2338 44.3653 31.2567 45.1922 30.0067 45.7463C28.7665 46.3007 27.3379 46.5778 25.7208 46.5778C24.1037 46.5778 22.6653 46.3007 21.4052 45.7463C20.1554 45.1922 19.1732 44.3653 18.4589 43.2664C17.7546 42.1675 17.4025 40.8153 17.4025 39.21V27.6527C17.4025 26.4199 18.4017 25.4206 19.6345 25.4206C20.8673 25.4206 21.8667 26.4199 21.8667 27.6527V39.21C21.8667 40.1464 22.0205 40.9111 22.3281 41.5035C22.6355 42.096 23.0769 42.5308 23.6524 42.8079C24.2378 43.0851 24.9271 43.2234 25.7208 43.2234C26.5343 43.2234 27.2238 43.0851 27.7894 42.8079C28.3647 42.5308 28.8012 42.096 29.0989 41.5035C29.4063 40.9111 29.5601 40.1464 29.5601 39.21V27.6452Z" fill="#FFF3D7"/>
<path d="M45.6871 41.3212L50.1013 27.0402C50.399 26.0773 51.2893 25.4206 52.2972 25.4206C53.8904 25.4206 55.0005 27.002 54.4587 28.5005L48.8897 43.9064C48.3794 45.3181 46.9956 46.2207 45.4979 46.119L45.6871 41.3212ZM39.107 25.4206C40.1107 25.4206 40.9971 26.0749 41.2927 27.034L45.6871 41.3212L45.4979 46.119C44.2331 46.2206 43.0571 45.4619 42.6281 44.2677L36.9547 28.4811C36.4192 26.991 37.5235 25.4206 39.107 25.4206Z" fill="#FFF3D7"/>
</g>
</g>
</g>
<defs>
<linearGradient id="paint0_linear_5029_53102" x1="50.3874" y1="53.5868" x2="16.9415" y2="12.5948" gradientUnits="userSpaceOnUse">
<stop stop-color="#EF6D0F" stop-opacity="0.262105"/>
<stop offset="0.5" stop-color="#EE931F" stop-opacity="0.262105"/>
<stop offset="1" stop-color="#EEB82E" stop-opacity="0.262105"/>
</linearGradient>
<linearGradient id="paint1_linear_5029_53102" x1="46.1622" y1="48.422" x2="22.5385" y2="19.4683" gradientUnits="userSpaceOnUse">
<stop stop-color="#EF6D0F"/>
<stop offset="0.5" stop-color="#EE931F"/>
<stop offset="1" stop-color="#EEB82E"/>
</linearGradient>
<clipPath id="clip0_5029_53102">
<rect width="72" height="72" fill="white"/>
</clipPath>
</defs>
</svg>
