<svg width="72" height="72" viewBox="0 0 72 72" fill="none" xmlns="http://www.w3.org/2000/svg">
<g clip-path="url(#clip0_5029_52751)">
<mask id="mask0_5029_52751" style="mask-type:luminance" maskUnits="userSpaceOnUse" x="0" y="0" width="72" height="72">
<path d="M72 0H0V72H72V0Z" fill="white"/>
</mask>
<g mask="url(#mask0_5029_52751)">
<mask id="mask1_5029_52751" style="mask-type:luminance" maskUnits="userSpaceOnUse" x="-1" y="-1" width="74" height="74">
<path d="M-0.25 -0.25H72.25V72.25H-0.25V-0.25Z" fill="white"/>
</mask>
<g mask="url(#mask1_5029_52751)">
<path d="M1.91687 35.9993C1.91687 54.8229 17.1764 70.0824 36 70.0824C54.8236 70.0824 70.0831 54.8229 70.0831 35.9993C70.0831 17.1757 54.8236 1.91615 36 1.91615C17.1764 1.91615 1.91687 17.1757 1.91687 35.9993Z" fill="url(#paint0_linear_5029_52751)"/>
<path d="M8.27557 35.9994C8.27557 51.3112 20.6882 63.7238 36 63.7238C51.3118 63.7238 63.7244 51.3112 63.7244 35.9994C63.7244 20.6877 51.3118 8.27503 36 8.27503C20.6882 8.27503 8.27557 20.6877 8.27557 35.9994Z" fill="url(#paint1_linear_5029_52751)"/>
<path d="M29.6804 28.0749C29.6804 26.7006 30.6579 25.5866 31.8636 25.5866C33.0693 25.5866 34.0468 26.7006 34.0468 28.0749V41.0107C34.0468 42.8063 33.6962 44.3188 32.9954 45.548C32.3041 46.7772 31.3453 47.702 30.1186 48.3219C28.9017 48.9419 27.4998 49.2519 25.9129 49.2519C24.326 49.2519 22.9144 48.9419 21.678 48.3219C20.4515 47.702 19.4876 46.7772 18.7867 45.548C18.0956 44.3188 17.75 42.8063 17.75 41.0107V28.0833C17.75 26.7043 18.7306 25.5866 19.9403 25.5866C21.1501 25.5866 22.1308 26.7043 22.1308 28.0833V41.0107C22.1308 42.0581 22.2818 42.9135 22.5836 43.5761C22.8852 44.2388 23.3184 44.7251 23.8832 45.0351C24.4576 45.3452 25.134 45.4999 25.9129 45.4999C26.7112 45.4999 27.3878 45.3452 27.9428 45.0351C28.5074 44.7251 28.9357 44.2388 29.2279 43.5761C29.5295 42.9135 29.6804 42.0581 29.6804 41.0107V28.0749Z" fill="#EEB82E" fill-opacity="0.6"/>
<path d="M45.5061 43.3722L49.8377 27.3983C50.1298 26.3211 51.0036 25.5866 51.9926 25.5866C53.556 25.5866 54.6453 27.3555 54.1137 29.0317L48.6487 46.2638C48.148 47.8429 46.79 48.8525 45.3203 48.7387L45.5061 43.3722ZM39.0489 25.5866C40.0339 25.5866 40.9037 26.3185 41.1938 27.3913L45.5061 43.3722L45.3203 48.7387C44.0792 48.8523 42.9252 48.0037 42.5042 46.668L36.9368 29.0099C36.4113 27.3432 37.495 25.5866 39.0489 25.5866Z" fill="#EEB82E" fill-opacity="0.6"/>
<path d="M29.6804 27.8013C29.6804 26.5956 30.6579 25.6183 31.8636 25.6183C33.0693 25.6183 34.0468 26.5956 34.0468 27.8013V39.15C34.0468 40.7253 33.6962 42.0522 32.9954 43.1306C32.3041 44.209 31.3453 45.0204 30.1186 45.5642C28.9017 46.1081 27.4998 46.3801 25.9129 46.3801C24.326 46.3801 22.9144 46.1081 21.678 45.5642C20.4515 45.0204 19.4876 44.209 18.7867 43.1306C18.0956 42.0522 17.75 40.7253 17.75 39.15V27.8087C17.75 26.5989 18.7306 25.6183 19.9403 25.6183C21.1501 25.6183 22.1308 26.5989 22.1308 27.8087V39.15C22.1308 40.0689 22.2818 40.8194 22.5836 41.4006C22.8852 41.9821 23.3184 42.4087 23.8832 42.6807C24.4576 42.9527 25.134 43.0884 25.9129 43.0884C26.7112 43.0884 27.3878 42.9527 27.9428 42.6807C28.5074 42.4087 28.9357 41.9821 29.2279 41.4006C29.5295 40.8194 29.6804 40.0689 29.6804 39.15V27.8013Z" fill="#FFF3D7"/>
<path d="M45.5061 41.2218L49.8377 27.2077C50.1298 26.2627 51.0036 25.6183 51.9926 25.6183C53.556 25.6183 54.6453 27.1702 54.1137 28.6407L48.6487 43.7586C48.148 45.144 46.79 46.0297 45.3203 45.9299L45.5061 41.2218ZM39.0489 25.6183C40.0339 25.6183 40.9037 26.2604 41.1938 27.2016L45.5061 41.2218L45.3203 45.9299C44.0792 46.0296 42.9252 45.285 42.5042 44.1132L36.9368 28.6216C36.4113 27.1594 37.495 25.6183 39.0489 25.6183Z" fill="#FFF3D7"/>
</g>
</g>
</g>
<defs>
<linearGradient id="paint0_linear_5029_52751" x1="49.5816" y1="52.6019" x2="18.0088" y2="13.9055" gradientUnits="userSpaceOnUse">
<stop stop-color="#EF6D0F" stop-opacity="0.3"/>
<stop offset="0.5" stop-color="#EE931F" stop-opacity="0.3"/>
<stop offset="1" stop-color="#EEB82E" stop-opacity="0.3"/>
</linearGradient>
<linearGradient id="paint1_linear_5029_52751" x1="47.0478" y1="49.5046" x2="21.3653" y2="18.0276" gradientUnits="userSpaceOnUse">
<stop stop-color="#EF6D0F"/>
<stop offset="0.5" stop-color="#EE931F"/>
<stop offset="1" stop-color="#EEB82E"/>
</linearGradient>
<clipPath id="clip0_5029_52751">
<rect width="72" height="72" fill="white"/>
</clipPath>
</defs>
</svg>
