<svg width="72" height="72" viewBox="0 0 72 72" fill="none" xmlns="http://www.w3.org/2000/svg">
<g clip-path="url(#clip0_5029_52535)">
<mask id="mask0_5029_52535" style="mask-type:luminance" maskUnits="userSpaceOnUse" x="0" y="0" width="72" height="72">
<path d="M72 0H0V72H72V0Z" fill="white"/>
</mask>
<g mask="url(#mask0_5029_52535)">
<mask id="mask1_5029_52535" style="mask-type:luminance" maskUnits="userSpaceOnUse" x="-1" y="-1" width="74" height="74">
<path d="M-0.25 -0.25H72.25V72.25H-0.25V-0.25Z" fill="white"/>
</mask>
<g mask="url(#mask1_5029_52535)">
<path d="M-0.0843506 35.9993C-0.0843506 55.9281 16.0712 72.0836 36 72.0836C55.9289 72.0836 72.0844 55.9281 72.0844 35.9993C72.0844 16.0704 55.9289 -0.0850849 36 -0.0850849C16.0712 -0.0850849 -0.0843506 16.0704 -0.0843506 35.9993Z" fill="url(#paint0_linear_5029_52535)"/>
<path d="M30.1333 28.3887C30.1333 27.2693 31.0407 26.362 32.16 26.362C33.2793 26.362 34.1868 27.2693 34.1868 28.3887V38.9243C34.1868 40.3868 33.8613 41.6187 33.2107 42.6198C32.569 43.6209 31.6788 44.3742 30.5401 44.879C29.4103 45.384 28.1088 45.6365 26.6356 45.6365C25.1624 45.6365 23.852 45.384 22.7041 44.879C21.5655 44.3742 20.6706 43.6209 20.0199 42.6198C19.3783 41.6187 19.0575 40.3868 19.0575 38.9243V28.3955C19.0575 27.2724 19.9678 26.362 21.0909 26.362C22.214 26.362 23.1245 27.2724 23.1245 28.3955V38.9243C23.1245 39.7774 23.2646 40.4741 23.5448 41.0137C23.8248 41.5535 24.227 41.9496 24.7513 42.2021C25.2845 42.4546 25.9125 42.5806 26.6356 42.5806C27.3767 42.5806 28.0048 42.4546 28.5201 42.2021C29.0442 41.9496 29.4419 41.5535 29.7131 41.0137C29.9932 40.4741 30.1333 39.7774 30.1333 38.9243V28.3887Z" fill="#FFF3D7"/>
<path d="M44.8251 40.8477L48.8465 27.8376C49.1177 26.9603 49.9288 26.362 50.847 26.362C52.2984 26.362 53.3097 27.8027 52.8162 29.1679L47.7427 43.2028C47.2778 44.4889 46.0171 45.3112 44.6527 45.2185L44.8251 40.8477ZM38.8306 26.362C39.745 26.362 40.5525 26.9581 40.8218 27.8319L44.8251 40.8477L44.6527 45.2185C43.5005 45.3111 42.4291 44.6199 42.0383 43.532L36.8698 29.1502C36.3819 27.7927 37.388 26.362 38.8306 26.362Z" fill="#FFF3D7"/>
</g>
</g>
</g>
<defs>
<linearGradient id="paint0_linear_5029_52535" x1="50.3791" y1="53.5767" x2="16.9524" y2="12.6082" gradientUnits="userSpaceOnUse">
<stop stop-color="#EF6D0F"/>
<stop offset="0.5" stop-color="#EE931F"/>
<stop offset="1" stop-color="#EEB82E"/>
</linearGradient>
<clipPath id="clip0_5029_52535">
<rect width="72" height="72" fill="white"/>
</clipPath>
</defs>
</svg>
