<svg width="72" height="72" viewBox="0 0 72 72" fill="none" xmlns="http://www.w3.org/2000/svg">
<g clip-path="url(#clip0_5029_52994)">
<mask id="mask0_5029_52994" style="mask-type:luminance" maskUnits="userSpaceOnUse" x="0" y="0" width="72" height="72">
<path d="M72 0H0V72H72V0Z" fill="white"/>
</mask>
<g mask="url(#mask0_5029_52994)">
<mask id="mask1_5029_52994" style="mask-type:luminance" maskUnits="userSpaceOnUse" x="-1" y="-1" width="74" height="74">
<path d="M-0.25 -0.25H72.25V72.25H-0.25V-0.25Z" fill="white"/>
</mask>
<g mask="url(#mask1_5029_52994)">
<path d="M0.256042 35.9993C0.256042 55.7401 16.2591 71.7432 36 71.7432C55.7408 71.7432 71.7439 55.7401 71.7439 35.9993C71.7439 16.2584 55.7408 0.255322 36 0.255322C16.2591 0.255322 0.256042 16.2584 0.256042 35.9993Z" fill="url(#paint0_linear_5029_52994)"/>
<path d="M10.6871 35.9995C10.6871 49.9794 22.0201 61.3124 36 61.3124C49.9799 61.3124 61.3129 49.9794 61.3129 35.9995C61.3129 22.0196 49.9799 10.6866 36 10.6866C22.0201 10.6866 10.6871 22.0196 10.6871 35.9995Z" fill="url(#paint1_linear_5029_52994)"/>
<path d="M29.5499 27.9713C29.5499 26.5315 30.5475 25.3644 31.7781 25.3644C33.0087 25.3644 34.0064 26.5315 34.0064 27.9713V41.5237C34.0064 43.4049 33.6486 44.9895 32.9333 46.2773C32.2278 47.565 31.2491 48.534 29.9971 49.1834C28.755 49.833 27.3241 50.1578 25.7045 50.1578C24.0848 50.1578 22.644 49.833 21.382 49.1834C20.1302 48.534 19.1464 47.565 18.431 46.2773C17.7256 44.9895 17.3729 43.4049 17.3729 41.5237V27.9801C17.3729 26.5354 18.3737 25.3644 19.6085 25.3644C20.8432 25.3644 21.8442 26.5354 21.8442 27.9801V41.5237C21.8442 42.621 21.9983 43.5172 22.3063 44.2114C22.6142 44.9057 23.0564 45.4152 23.6328 45.74C24.2191 46.0648 24.9095 46.2269 25.7045 46.2269C26.5192 46.2269 27.2098 46.0648 27.7763 45.74C28.3526 45.4152 28.7898 44.9057 29.0879 44.2114C29.3958 43.5172 29.5499 42.621 29.5499 41.5237V27.9713Z" fill="#EEB82E" fill-opacity="0.6"/>
<path d="M45.7025 43.9978L50.1237 27.2624C50.4219 26.134 51.3136 25.3644 52.3231 25.3644C53.9188 25.3644 55.0307 27.2177 54.4881 28.9737L48.9101 47.0272C48.3991 48.6816 47.013 49.7393 45.5129 49.6201L45.7025 43.9978ZM39.1119 25.3644C40.1173 25.3644 41.0051 26.1312 41.3011 27.2552L45.7025 43.9978L45.5129 49.6201C44.2461 49.7391 43.0683 48.85 42.6386 47.4507L36.9562 28.9509C36.4198 27.2048 37.5259 25.3644 39.1119 25.3644Z" fill="#EEB82E" fill-opacity="0.6"/>
<path d="M29.5499 27.6319C29.5499 26.4013 30.5475 25.4038 31.7781 25.4038C33.0087 25.4038 34.0064 26.4013 34.0064 27.6319V39.2151C34.0064 40.823 33.6486 42.1773 32.9333 43.278C32.2278 44.3786 31.2491 45.2068 29.9971 45.7618C28.755 46.317 27.3241 46.5946 25.7045 46.5946C24.0848 46.5946 22.644 46.317 21.382 45.7618C20.1302 45.2068 19.1464 44.3786 18.431 43.278C17.7256 42.1773 17.3729 40.823 17.3729 39.2151V27.6394C17.3729 26.4046 18.3737 25.4038 19.6085 25.4038C20.8432 25.4038 21.8442 26.4046 21.8442 27.6394V39.2151C21.8442 40.153 21.9983 40.9189 22.3063 41.5123C22.6142 42.1057 23.0564 42.5412 23.6328 42.8188C24.2191 43.0964 24.9095 43.2349 25.7045 43.2349C26.5192 43.2349 27.2098 43.0964 27.7763 42.8188C28.3526 42.5412 28.7898 42.1057 29.0879 41.5123C29.3958 40.9189 29.5499 40.153 29.5499 39.2151V27.6319Z" fill="#FFF3D7"/>
<path d="M45.7025 41.3297L50.1237 27.026C50.4219 26.0615 51.3136 25.4038 52.3231 25.4038C53.9188 25.4038 55.0307 26.9877 54.4881 28.4886L48.9101 43.919C48.3991 45.3329 47.013 46.237 45.5129 46.1351L45.7025 41.3297ZM39.1119 25.4038C40.1173 25.4038 41.0051 26.0591 41.3011 27.0198L45.7025 41.3297L45.5129 46.1351C44.2461 46.2368 43.0683 45.4769 42.6386 44.2809L36.9562 28.4691C36.4198 26.9767 37.5259 25.4038 39.1119 25.4038Z" fill="#FFF3D7"/>
</g>
</g>
</g>
<defs>
<linearGradient id="paint0_linear_5029_52994" x1="50.2435" y1="53.4109" x2="17.1321" y2="12.8289" gradientUnits="userSpaceOnUse">
<stop stop-color="#EF6D0F" stop-opacity="0.3"/>
<stop offset="0.5" stop-color="#EE931F" stop-opacity="0.3"/>
<stop offset="1" stop-color="#EEB82E" stop-opacity="0.3"/>
</linearGradient>
<linearGradient id="paint1_linear_5029_52994" x1="46.0868" y1="48.3299" x2="22.6383" y2="19.5909" gradientUnits="userSpaceOnUse">
<stop stop-color="#EF6D0F"/>
<stop offset="0.5" stop-color="#EE931F"/>
<stop offset="1" stop-color="#EEB82E"/>
</linearGradient>
<clipPath id="clip0_5029_52994">
<rect width="72" height="72" fill="white"/>
</clipPath>
</defs>
</svg>
