<svg width="72" height="72" viewBox="0 0 72 72" fill="none" xmlns="http://www.w3.org/2000/svg">
<g clip-path="url(#clip0_5029_52886)">
<mask id="mask0_5029_52886" style="mask-type:luminance" maskUnits="userSpaceOnUse" x="0" y="0" width="72" height="72">
<path d="M72 0H0V72H72V0Z" fill="white"/>
</mask>
<g mask="url(#mask0_5029_52886)">
<mask id="mask1_5029_52886" style="mask-type:luminance" maskUnits="userSpaceOnUse" x="-1" y="-1" width="74" height="74">
<path d="M-0.25 -0.25H72.25V72.25H-0.25V-0.25Z" fill="white"/>
</mask>
<g mask="url(#mask1_5029_52886)">
<path d="M0.978149 35.9993C0.978149 55.3413 16.658 71.0211 36 71.0211C55.342 71.0211 71.0219 55.3413 71.0219 35.9993C71.0219 16.6572 55.342 0.977421 36 0.977421C16.658 0.977421 0.978149 16.6572 0.978149 35.9993Z" fill="url(#paint0_linear_5029_52886)"/>
<path d="M10.2875 35.9995C10.2875 50.2001 21.7994 61.712 36 61.712C50.2006 61.712 61.7125 50.2001 61.7125 35.9995C61.7125 21.7989 50.2006 10.287 36 10.287C21.7994 10.287 10.2875 21.7989 10.2875 35.9995Z" fill="url(#paint1_linear_5029_52886)"/>
<path d="M29.5715 27.9913C29.5715 26.5606 30.5658 25.4009 31.7923 25.4009C33.0188 25.4009 34.0131 26.5606 34.0131 27.9913V41.4579C34.0131 43.3272 33.6565 44.9017 32.9436 46.1814C32.2404 47.461 31.265 48.4238 30.0172 49.0691C28.7793 49.7145 27.3532 50.0373 25.739 50.0373C24.1248 50.0373 22.6888 49.7145 21.4311 49.0691C20.1834 48.4238 19.2029 47.461 18.4899 46.1814C17.7869 44.9017 17.4354 43.3272 17.4354 41.4579V28C17.4354 26.5645 18.4329 25.4009 19.6635 25.4009C20.8941 25.4009 21.8917 26.5645 21.8917 28V41.4579C21.8917 42.5482 22.0453 43.4388 22.3523 44.1285C22.6591 44.8185 23.0998 45.3247 23.6743 45.6475C24.2586 45.9702 24.9467 46.1313 25.739 46.1313C26.5511 46.1313 27.2393 45.9702 27.8039 45.6475C28.3782 45.3247 28.814 44.8185 29.1111 44.1285C29.418 43.4388 29.5715 42.5482 29.5715 41.4579V27.9913Z" fill="#EEB82E" fill-opacity="0.6"/>
<path d="M45.67 43.9163L50.0763 27.2869C50.3735 26.1656 51.2623 25.4009 52.2683 25.4009C53.8587 25.4009 54.9668 27.2424 54.426 28.9873L48.8668 46.9265C48.3575 48.5704 46.9761 49.6215 45.481 49.503L45.67 43.9163ZM39.1015 25.4009C40.1034 25.4009 40.9883 26.1628 41.2834 27.2797L45.67 43.9163L45.481 49.503C44.2185 49.6213 43.0446 48.7378 42.6163 47.3473L36.953 28.9647C36.4184 27.2296 37.5208 25.4009 39.1015 25.4009Z" fill="#EEB82E" fill-opacity="0.6"/>
<path d="M29.5715 27.66C29.5715 26.4335 30.5658 25.4393 31.7923 25.4393C33.0188 25.4393 34.0131 26.4335 34.0131 27.66V39.2043C34.0131 40.8068 33.6565 42.1566 32.9436 43.2535C32.2404 44.3505 31.265 45.1759 30.0172 45.7291C28.7793 46.2824 27.3532 46.5591 25.739 46.5591C24.1248 46.5591 22.6888 46.2824 21.4311 45.7291C20.1834 45.1759 19.2029 44.3505 18.4899 43.2535C17.7869 42.1566 17.4354 40.8068 17.4354 39.2043V27.6674C17.4354 26.4368 18.4329 25.4393 19.6635 25.4393C20.8941 25.4393 21.8917 26.4368 21.8917 27.6674V39.2043C21.8917 40.139 22.0453 40.9024 22.3523 41.4938C22.6591 42.0852 23.0998 42.5192 23.6743 42.7959C24.2586 43.0725 24.9467 43.2106 25.739 43.2106C26.5511 43.2106 27.2393 43.0725 27.8039 42.7959C28.3782 42.5192 28.814 42.0852 29.1111 41.4938C29.418 40.9024 29.5715 40.139 29.5715 39.2043V27.66Z" fill="#FFF3D7"/>
<path d="M45.67 41.3118L50.0763 27.0561C50.3735 26.0948 51.2623 25.4393 52.2683 25.4393C53.8587 25.4393 54.9668 27.018 54.426 28.5138L48.8668 43.8924C48.3575 45.3016 46.9761 46.2026 45.481 46.1011L45.67 41.3118ZM39.1015 25.4393C40.1034 25.4393 40.9883 26.0924 41.2834 27.0499L45.67 41.3118L45.481 46.1011C44.2185 46.2025 43.0446 45.4451 42.6163 44.2531L36.953 28.4944C36.4184 27.007 37.5208 25.4393 39.1015 25.4393Z" fill="#FFF3D7"/>
</g>
</g>
</g>
<defs>
<linearGradient id="paint0_linear_5029_52886" x1="49.9557" y1="53.0591" x2="17.5132" y2="13.297" gradientUnits="userSpaceOnUse">
<stop stop-color="#EF6D0F" stop-opacity="0.3"/>
<stop offset="0.5" stop-color="#EE931F" stop-opacity="0.3"/>
<stop offset="1" stop-color="#EEB82E" stop-opacity="0.3"/>
</linearGradient>
<linearGradient id="paint1_linear_5029_52886" x1="46.2461" y1="48.5246" x2="22.4273" y2="19.3318" gradientUnits="userSpaceOnUse">
<stop stop-color="#EF6D0F"/>
<stop offset="0.5" stop-color="#EE931F"/>
<stop offset="1" stop-color="#EEB82E"/>
</linearGradient>
<clipPath id="clip0_5029_52886">
<rect width="72" height="72" fill="white"/>
</clipPath>
</defs>
</svg>
