<svg width="72" height="72" viewBox="0 0 72 72" fill="none" xmlns="http://www.w3.org/2000/svg">
<g clip-path="url(#clip0_5029_53453)">
<mask id="mask0_5029_53453" style="mask-type:luminance" maskUnits="userSpaceOnUse" x="0" y="0" width="72" height="72">
<path d="M72 0H0V72H72V0Z" fill="white"/>
</mask>
<g mask="url(#mask0_5029_53453)">
<mask id="mask1_5029_53453" style="mask-type:luminance" maskUnits="userSpaceOnUse" x="-1" y="-1" width="74" height="74">
<path d="M-0.25 -0.25H72.25V72.25H-0.25V-0.25Z" fill="white"/>
</mask>
<g mask="url(#mask1_5029_53453)">
<path d="M-0.10498 35.9993C-0.10498 55.9395 16.0598 72.1043 36 72.1043C55.9403 72.1043 72.105 55.9395 72.105 35.9993C72.105 16.059 55.9403 -0.105728 36 -0.105728C16.0598 -0.105728 -0.10498 16.059 -0.10498 35.9993Z" fill="url(#paint0_linear_5029_53453)"/>
<path d="M0.0696411 35.9993C0.0696411 55.8431 16.1562 71.9296 36 71.9296C55.8438 71.9296 71.9303 55.8431 71.9303 35.9993C71.9303 16.1555 55.8438 0.068924 36 0.068924C16.1562 0.068924 0.0696411 16.1555 0.0696411 35.9993Z" fill="url(#paint1_linear_5029_53453)"/>
<path d="M30.1249 28.3819C30.1249 27.2585 31.0336 26.3479 32.1545 26.3479C33.2754 26.3479 34.1842 27.2585 34.1842 28.3819V38.9558C34.1842 40.4236 33.8583 41.66 33.2068 42.6647C32.5641 43.6695 31.6726 44.4255 30.5323 44.9322C29.4009 45.439 28.0976 45.6924 26.6223 45.6924C25.147 45.6924 23.8347 45.439 22.6851 44.9322C21.5449 44.4255 20.6488 43.6695 19.9972 42.6647C19.3546 41.66 19.0334 40.4236 19.0334 38.9558V28.3887C19.0334 27.2615 19.945 26.3479 21.0697 26.3479C22.1944 26.3479 23.1062 27.2615 23.1062 28.3887V38.9558C23.1062 39.812 23.2465 40.5112 23.5271 41.0528C23.8075 41.5946 24.2102 41.9921 24.7353 42.2455C25.2693 42.4989 25.8982 42.6254 26.6223 42.6254C27.3644 42.6254 27.9934 42.4989 28.5095 42.2455C29.0343 41.9921 29.4326 41.5946 29.7041 41.0528C29.9846 40.5112 30.1249 39.812 30.1249 38.9558V28.3819Z" fill="#EEB82E" fill-opacity="0.6"/>
<path d="M44.8377 40.8862L48.8647 27.8287C49.1363 26.9483 49.9486 26.3479 50.8681 26.3479C52.3216 26.3479 53.3343 27.7938 52.84 29.1639L47.7593 43.2499C47.2939 44.5406 46.0313 45.3659 44.665 45.2729L44.8377 40.8862ZM38.8346 26.3479C39.7503 26.3479 40.5589 26.9461 40.8286 27.8231L44.8377 40.8862L44.665 45.2729C43.5111 45.3658 42.4383 44.6721 42.0468 43.5803L36.871 29.1462C36.3824 27.7838 37.3899 26.3479 38.8346 26.3479Z" fill="#EEB82E" fill-opacity="0.6"/>
<path d="M30.1249 28.3778C30.1249 27.2569 31.0336 26.3483 32.1545 26.3483C33.2754 26.3483 34.1842 27.2569 34.1842 28.3778V38.9285C34.1842 40.393 33.8583 41.6266 33.2068 42.6292C32.5641 43.6317 31.6726 44.3861 30.5323 44.8916C29.4009 45.3974 28.0976 45.6502 26.6223 45.6502C25.147 45.6502 23.8347 45.3974 22.6851 44.8916C21.5449 44.3861 20.6488 43.6317 19.9972 42.6292C19.3546 41.6266 19.0334 40.393 19.0334 38.9285V28.3847C19.0334 27.26 19.945 26.3483 21.0697 26.3483C22.1944 26.3483 23.1062 27.26 23.1062 28.3847V38.9285C23.1062 39.7828 23.2465 40.4805 23.5271 41.0209C23.8075 41.5614 24.2102 41.9581 24.7353 42.2109C25.2693 42.4638 25.8982 42.59 26.6223 42.59C27.3644 42.59 27.9934 42.4638 28.5095 42.2109C29.0343 41.9581 29.4326 41.5614 29.7041 41.0209C29.9846 40.4805 30.1249 39.7828 30.1249 38.9285V28.3778Z" fill="#FFF3D7"/>
<path d="M44.8377 40.8546L48.8647 27.826C49.1363 26.9474 49.9486 26.3483 50.8681 26.3483C52.3216 26.3483 53.3343 27.7911 52.84 29.1582L47.7593 43.213C47.2939 44.501 46.0313 45.3244 44.665 45.2316L44.8377 40.8546ZM38.8346 26.3483C39.7503 26.3483 40.5589 26.9453 40.8286 27.8203L44.8377 40.8546L44.665 45.2316C43.5111 45.3243 42.4383 44.6321 42.0468 43.5427L36.871 29.1405C36.3824 27.7811 37.3899 26.3483 38.8346 26.3483Z" fill="#FFF3D7"/>
</g>
</g>
</g>
<defs>
<linearGradient id="paint0_linear_5029_53453" x1="50.3874" y1="53.5868" x2="16.9415" y2="12.5948" gradientUnits="userSpaceOnUse">
<stop stop-color="#EF6D0F" stop-opacity="0.06"/>
<stop offset="0.5" stop-color="#EE931F" stop-opacity="0.06"/>
<stop offset="1" stop-color="#EEB82E" stop-opacity="0.06"/>
</linearGradient>
<linearGradient id="paint1_linear_5029_53453" x1="50.3177" y1="53.5017" x2="17.0337" y2="12.708" gradientUnits="userSpaceOnUse">
<stop stop-color="#EF6D0F"/>
<stop offset="0.5" stop-color="#EE931F"/>
<stop offset="1" stop-color="#EEB82E"/>
</linearGradient>
<clipPath id="clip0_5029_53453">
<rect width="72" height="72" fill="white"/>
</clipPath>
</defs>
</svg>
