<svg width="72" height="72" viewBox="0 0 72 72" fill="none" xmlns="http://www.w3.org/2000/svg">
<g clip-path="url(#clip0_5029_52643)">
<mask id="mask0_5029_52643" style="mask-type:luminance" maskUnits="userSpaceOnUse" x="0" y="0" width="72" height="72">
<path d="M72 0H0V72H72V0Z" fill="white"/>
</mask>
<g mask="url(#mask0_5029_52643)">
<mask id="mask1_5029_52643" style="mask-type:luminance" maskUnits="userSpaceOnUse" x="-1" y="-1" width="74" height="74">
<path d="M-0.25 -0.25H72.25V72.25H-0.25V-0.25Z" fill="white"/>
</mask>
<g mask="url(#mask1_5029_52643)">
<path d="M2.56677 35.9993C2.56677 54.464 17.5353 69.4325 36 69.4325C54.4647 69.4325 69.4332 54.464 69.4332 35.9993C69.4332 17.5346 54.4647 2.56604 36 2.56604C17.5353 2.56604 2.56677 17.5346 2.56677 35.9993Z" fill="url(#paint0_linear_5029_52643)"/>
<path d="M1.89691 35.9993C1.89691 54.8339 17.1654 70.1024 36 70.1024C54.8346 70.1024 70.103 54.8339 70.103 35.9993C70.103 17.1647 54.8346 1.89626 36 1.89626C17.1654 1.89626 1.89691 17.1647 1.89691 35.9993Z" fill="url(#paint1_linear_5029_52643)"/>
<path d="M30.0259 28.3089C30.0259 27.1325 30.9499 26.1789 32.0897 26.1789C33.2295 26.1789 34.1535 27.1325 34.1535 28.3089V39.3819C34.1535 40.9189 33.8221 42.2136 33.1596 43.2658C32.5062 44.318 31.5997 45.1097 30.4401 45.6403C29.2897 46.171 27.9644 46.4364 26.4643 46.4364C24.9641 46.4364 23.6297 46.171 22.4608 45.6403C21.3014 45.1097 20.3902 44.318 19.7276 43.2658C19.0742 42.2136 18.7476 40.9189 18.7476 39.3819V28.316C18.7476 27.1357 19.6745 26.1789 20.8182 26.1789C21.9618 26.1789 22.8889 27.1357 22.8889 28.316V39.3819C22.8889 40.2784 23.0316 41.0107 23.3169 41.5778C23.6021 42.1452 24.0116 42.5614 24.5455 42.8268C25.0885 43.0922 25.7279 43.2246 26.4643 43.2246C27.2189 43.2246 27.8585 43.0922 28.3832 42.8268C28.9169 42.5614 29.3219 42.1452 29.598 41.5778C29.8832 41.0107 30.0259 40.2784 30.0259 39.3819V28.3089Z" fill="#EEB82E" fill-opacity="0.6"/>
<path d="M44.9865 41.4033L49.0813 27.7297C49.3575 26.8076 50.1835 26.1789 51.1184 26.1789C52.5964 26.1789 53.6262 27.6931 53.1236 29.1278L47.9573 43.8785C47.484 45.2302 46.2002 46.0945 44.8109 45.9971L44.9865 41.4033ZM38.8822 26.1789C39.8134 26.1789 40.6357 26.8054 40.9099 27.7237L44.9865 41.4033L44.8109 45.9971C43.6375 46.0943 42.5466 45.3679 42.1486 44.2245L36.8856 29.1092C36.3888 27.6826 37.4133 26.1789 38.8822 26.1789Z" fill="#EEB82E" fill-opacity="0.6"/>
<path d="M30.0259 28.2495C30.0259 27.1097 30.9499 26.1858 32.0897 26.1858C33.2295 26.1858 34.1535 27.1097 34.1535 28.2495V38.9778C34.1535 40.467 33.8221 41.7214 33.1596 42.7409C32.5062 43.7603 31.5997 44.5273 30.4401 45.0414C29.2897 45.5556 27.9644 45.8127 26.4643 45.8127C24.9641 45.8127 23.6297 45.5556 22.4608 45.0414C21.3014 44.5273 20.3902 43.7603 19.7276 42.7409C19.0742 41.7214 18.7476 40.467 18.7476 38.9778V28.2564C18.7476 27.1128 19.6745 26.1858 20.8182 26.1858C21.9618 26.1858 22.8889 27.1128 22.8889 28.2564V38.9778C22.8889 39.8465 23.0316 40.5559 23.3169 41.1054C23.6021 41.6551 24.0116 42.0584 24.5455 42.3155C25.0885 42.5726 25.7279 42.701 26.4643 42.701C27.2189 42.701 27.8585 42.5726 28.3832 42.3155C28.9169 42.0584 29.3219 41.6551 29.598 41.1054C29.8832 40.5559 30.0259 39.8465 30.0259 38.9778V28.2495Z" fill="#FFF3D7"/>
<path d="M44.9865 40.9364L49.0813 27.6883C49.3575 26.795 50.1835 26.1858 51.1184 26.1858C52.5964 26.1858 53.6262 27.6528 53.1236 29.0429L47.9573 43.3345C47.484 44.6442 46.2002 45.4815 44.8109 45.3871L44.9865 40.9364ZM38.8822 26.1858C39.8134 26.1858 40.6357 26.7927 40.9099 27.6825L44.9865 40.9364L44.8109 45.3871C43.6375 45.4813 42.5466 44.7775 42.1486 43.6698L36.8856 29.0249C36.3888 27.6426 37.4133 26.1858 38.8822 26.1858Z" fill="#FFF3D7"/>
</g>
</g>
</g>
<defs>
<linearGradient id="paint0_linear_5029_52643" x1="49.3227" y1="52.2853" x2="18.3518" y2="14.3268" gradientUnits="userSpaceOnUse">
<stop stop-color="#EF6D0F" stop-opacity="0.3"/>
<stop offset="0.5" stop-color="#EE931F" stop-opacity="0.3"/>
<stop offset="1" stop-color="#EEB82E" stop-opacity="0.3"/>
</linearGradient>
<linearGradient id="paint1_linear_5029_52643" x1="49.5896" y1="52.6116" x2="17.9982" y2="13.8926" gradientUnits="userSpaceOnUse">
<stop stop-color="#EF6D0F"/>
<stop offset="0.5" stop-color="#EE931F"/>
<stop offset="1" stop-color="#EEB82E"/>
</linearGradient>
<clipPath id="clip0_5029_52643">
<rect width="72" height="72" fill="white"/>
</clipPath>
</defs>
</svg>
