<svg width="72" height="72" viewBox="0 0 72 72" fill="none" xmlns="http://www.w3.org/2000/svg">
<g clip-path="url(#clip0_5029_53372)">
<mask id="mask0_5029_53372" style="mask-type:luminance" maskUnits="userSpaceOnUse" x="0" y="0" width="72" height="72">
<path d="M72 0H0V72H72V0Z" fill="white"/>
</mask>
<g mask="url(#mask0_5029_53372)">
<mask id="mask1_5029_53372" style="mask-type:luminance" maskUnits="userSpaceOnUse" x="-1" y="-1" width="74" height="74">
<path d="M-0.25 -0.25H72.25V72.25H-0.25V-0.25Z" fill="white"/>
</mask>
<g mask="url(#mask1_5029_53372)">
<path d="M-0.10498 35.9993C-0.10498 55.9395 16.0598 72.1043 36 72.1043C55.9403 72.1043 72.105 55.9395 72.105 35.9993C72.105 16.059 55.9403 -0.105728 36 -0.105728C16.0598 -0.105728 -0.10498 16.059 -0.10498 35.9993Z" fill="url(#paint0_linear_5029_53372)"/>
<path d="M0.630981 35.9993C0.630981 55.5331 16.4662 71.3683 36 71.3683C55.5338 71.3683 71.369 55.5331 71.369 35.9993C71.369 16.4655 55.5338 0.630249 36 0.630249C16.4662 0.630249 0.630981 16.4655 0.630981 35.9993Z" fill="url(#paint1_linear_5029_53372)"/>
<path d="M30.0944 28.3551C30.0944 27.2181 31.0079 26.2965 32.1346 26.2965C33.2613 26.2965 34.1747 27.2181 34.1747 28.3551V39.0569C34.1747 40.5424 33.8471 41.7937 33.1923 42.8107C32.5463 43.8276 31.6502 44.5927 30.5039 45.1055C29.3667 45.6185 28.0566 45.875 26.5737 45.875C25.0908 45.875 23.7717 45.6185 22.6162 45.1055C21.4701 44.5927 20.5694 43.8276 19.9143 42.8107C19.2685 41.7937 18.9456 40.5424 18.9456 39.0569V28.362C18.9456 27.2212 19.8619 26.2965 20.9924 26.2965C22.1229 26.2965 23.0394 27.2212 23.0394 28.362V39.0569C23.0394 39.9234 23.1804 40.6311 23.4625 41.1793C23.7444 41.7276 24.1492 42.1299 24.6769 42.3864C25.2137 42.6429 25.8458 42.7709 26.5737 42.7709C27.3197 42.7709 27.952 42.6429 28.4707 42.3864C28.9982 42.1299 29.3985 41.7276 29.6715 41.1793C29.9534 40.6311 30.0944 39.9234 30.0944 39.0569V28.3551Z" fill="#EEB82E" fill-opacity="0.6"/>
<path d="M44.8834 41.0106L48.9312 27.7953C49.2042 26.9042 50.0207 26.2965 50.945 26.2965C52.406 26.2965 53.4239 27.7599 52.9272 29.1466L47.8202 43.4029C47.3523 44.7092 46.0832 45.5445 44.7098 45.4504L44.8834 41.0106ZM38.8492 26.2965C39.7697 26.2965 40.5825 26.9019 40.8536 27.7895L44.8834 41.0106L44.7098 45.4504C43.5499 45.5444 42.4715 44.8423 42.0781 43.7373L36.8755 29.1286C36.3844 27.7497 37.3971 26.2965 38.8492 26.2965Z" fill="#EEB82E" fill-opacity="0.6"/>
<path d="M30.0944 28.3384C30.0944 27.2117 31.0079 26.2984 32.1346 26.2984C33.2613 26.2984 34.1747 27.2117 34.1747 28.3384V38.9436C34.1747 40.4158 33.8471 41.6558 33.1923 42.6635C32.5463 43.6712 31.6502 44.4295 30.5039 44.9376C29.3667 45.446 28.0566 45.7001 26.5737 45.7001C25.0908 45.7001 23.7717 45.446 22.6162 44.9376C21.4701 44.4295 20.5694 43.6712 19.9143 42.6635C19.2685 41.6558 18.9456 40.4158 18.9456 38.9436V28.3453C18.9456 27.2147 19.8619 26.2984 20.9924 26.2984C22.1229 26.2984 23.0394 27.2147 23.0394 28.3453V38.9436C23.0394 39.8023 23.1804 40.5036 23.4625 41.0468C23.7444 41.5902 24.1492 41.9889 24.6769 42.2431C25.2137 42.4972 25.8458 42.6241 26.5737 42.6241C27.3197 42.6241 27.952 42.4972 28.4707 42.2431C28.9982 41.9889 29.3985 41.5902 29.6715 41.0468C29.9534 40.5036 30.0944 39.8023 30.0944 38.9436V28.3384Z" fill="#FFF3D7"/>
<path d="M44.8834 40.8797L48.9312 27.7837C49.2042 26.9006 50.0207 26.2984 50.945 26.2984C52.406 26.2984 53.4239 27.7486 52.9272 29.1228L47.8202 43.2504C47.3523 44.5449 46.0832 45.3727 44.7098 45.2794L44.8834 40.8797ZM38.8492 26.2984C39.7697 26.2984 40.5825 26.8984 40.8536 27.778L44.8834 40.8797L44.7098 45.2794C43.5499 45.3725 42.4715 44.6768 42.0781 43.5817L36.8755 29.105C36.3844 27.7385 37.3971 26.2984 38.8492 26.2984Z" fill="#FFF3D7"/>
</g>
</g>
</g>
<defs>
<linearGradient id="paint0_linear_5029_53372" x1="50.3874" y1="53.5868" x2="16.9415" y2="12.5948" gradientUnits="userSpaceOnUse">
<stop stop-color="#EF6D0F" stop-opacity="0.110526"/>
<stop offset="0.5" stop-color="#EE931F" stop-opacity="0.110526"/>
<stop offset="1" stop-color="#EEB82E" stop-opacity="0.110526"/>
</linearGradient>
<linearGradient id="paint1_linear_5029_53372" x1="50.0941" y1="53.2283" x2="17.33" y2="13.0719" gradientUnits="userSpaceOnUse">
<stop stop-color="#EF6D0F"/>
<stop offset="0.5" stop-color="#EE931F"/>
<stop offset="1" stop-color="#EEB82E"/>
</linearGradient>
<clipPath id="clip0_5029_53372">
<rect width="72" height="72" fill="white"/>
</clipPath>
</defs>
</svg>
